/* XPM */
static char *ce441f8cf1cf43eefff761170ee7ae3bzSkUcUNsLhyGbows[] = {
/* columns rows colors chars-per-pixel */
"64 64 177 2 ",
"   c #08080A",
".  c #111113",
"X  c #151517",
"o  c #171719",
"O  c #18181A",
"+  c #19191B",
"@  c #1A1A1C",
"#  c #1B1B1D",
"$  c #191A1E",
"%  c #1A1B1F",
"&  c #1C1C1E",
"*  c #1C1D1F",
"=  c #1D1D1F",
"-  c #1C1B20",
";  c #1B1C20",
":  c #1D1C21",
">  c #1C1D21",
",  c #1D1E20",
"<  c #1E1E20",
"1  c #1F1F21",
"2  c #1E1D22",
"3  c #1D1E22",
"4  c #1F1E23",
"5  c #1E1F23",
"6  c #201F24",
"7  c #1F2024",
"8  c #202022",
"9  c #212123",
"0  c #212025",
"q  c #202125",
"w  c #222224",
"e  c #232325",
"r  c #222126",
"t  c #212226",
"y  c #232227",
"u  c #222327",
"i  c #242426",
"p  c #242527",
"a  c #252527",
"s  c #23232B",
"d  c #242328",
"f  c #232428",
"g  c #252429",
"h  c #242529",
"j  c #252628",
"k  c #262628",
"l  c #262729",
"z  c #272729",
"x  c #24252A",
"c  c #26252A",
"v  c #25262A",
"b  c #25262B",
"n  c #27262B",
"m  c #26272B",
"M  c #25252D",
"N  c #26272C",
"B  c #26262E",
"V  c #27272F",
"C  c #28272C",
"Z  c #27282A",
"A  c #27282C",
"S  c #27282D",
"D  c #28282A",
"F  c #29292B",
"G  c #29282D",
"H  c #28292D",
"J  c #292A2C",
"K  c #2A2A2C",
"L  c #2A2B2D",
"P  c #2B2B2D",
"I  c #28292E",
"U  c #2A292E",
"Y  c #292A2E",
"T  c #292A2F",
"R  c #2B2A2F",
"E  c #2A2B2F",
"W  c #2B2C2E",
"Q  c #2C2C2E",
"!  c #2C2D2F",
"~  c #2D2D2F",
"^  c #282830",
"/  c #292931",
"(  c #2A2B30",
")  c #2A2A32",
"_  c #2B2B33",
"`  c #2C2B30",
"'  c #2B2C30",
"]  c #2B2C31",
"[  c #2D2C31",
"{  c #2C2D31",
"}  c #2D2E30",
"|  c #2E2E30",
" . c #2E2F31",
".. c #2F2F31",
"X. c #2C2D32",
"o. c #2E2D32",
"O. c #2D2E32",
"+. c #2D2E33",
"@. c #2F2E33",
"#. c #2E2F33",
"$. c #2D2D35",
"%. c #2E2F34",
"&. c #2F2F37",
"*. c #302F34",
"=. c #2F3032",
"-. c #2F3034",
";. c #2F3035",
":. c #303032",
">. c #303133",
",. c #313133",
"<. c #313035",
"1. c #303135",
"2. c #323234",
"3. c #323335",
"4. c #333335",
"5. c #303136",
"6. c #323136",
"7. c #313236",
"8. c #313237",
"9. c #323337",
"0. c #343436",
"q. c #353537",
"w. c #303038",
"e. c #313139",
"r. c #323338",
"t. c #32323A",
"y. c #33333B",
"u. c #343338",
"i. c #333438",
"p. c #343539",
"a. c #363638",
"s. c #373739",
"d. c #34353A",
"f. c #36353A",
"g. c #35363A",
"h. c #35363B",
"j. c #37363B",
"k. c #36373B",
"l. c #34343C",
"z. c #35353D",
"x. c #36373C",
"c. c #36363E",
"v. c #37373F",
"b. c #37383C",
"n. c #37383D",
"m. c #38383A",
"M. c #38393D",
"N. c #3A3A3C",
"B. c #3B3B3D",
"V. c #38393E",
"C. c #393A3E",
"Z. c #393A3F",
"A. c #3A3B3F",
"S. c #3C3C3E",
"D. c #383840",
"F. c #393941",
"G. c #3A3B40",
"H. c #3A3A42",
"J. c #3B3B43",
"K. c #3F3F41",
"L. c #3D3E42",
"P. c #3C3C44",
"I. c #3D3D45",
"U. c #3E3E46",
"Y. c #3F3F47",
"T. c #414143",
"R. c #515153",
"E. c #535355",
"W. c #565658",
"Q. c #575759",
"!. c #5F5F61",
"~. c #636365",
"^. c #727274",
"/. c #737375",
"(. c #818183",
"). c #838385",
"_. c #88888A",
/* pixels */
"g.M.M.b.g.-.1.1.#.1.g.g.i.1.1.#.Y ' #.#.-.1.-.' ' A Y -.1.-.-.i.-.Y -.Y g.#.1.-.i.1.g.g.g.i.-.#.=.=.1.1.1.i.i.i.-.b.J.F.J.U.Y.U.",
"1.1.1.#.Y Y #.#.1.1.i.g.i.1.1.1.A A A Y ' ' Y A #.Y ' ' ' A A Y 1.' 1.-.M.1.g.i.i.i.i.i.g.1.#.#.W W ' #.-.i.i.i.^ -.i.5.5.F.F.h.",
"g.1.-.#.#.#.1.b.1.1.1.1.-.1.i.g.#.' ' #.#.#.#.' #.' ' -.-.-.-.-.' h #.Y g.' 1.-.-.-.-.-.-.#.Y h Z Z Y Y ' -.1.i.' 5.i.5.e.D.F.F.",
"1.-.' Y Y #.i.g.1.1.i.i.1.i.1.g.-.#.' ' ' #.#.' A Y Y #.#.#.#.-.1.#.i.i.L.i.b.i.i.g.i.g.g.i.-.#.=.1.-.i.i.b.b.M.h.h.b.h.h.D.U.I.",
"A h h h h A Y Y h h h Y Y h h h h h h f h h h f h A A h h h u 3 u ; u u #.f h f 7 7 7 7 u f 7 u = = ; 3 3 7 7 7 A s s s s s B / ",
"Y A h A Y Y Y #.u f h f u 7 3 u Y h h A Y A A h h Y ' Y Y #.Y A ' h #.' i.Y #.#.' ' ' #.#.1.-.1.=.=.#.=.' ' -.' b.b.x.h.y.y.D.F.",
"i.1.1.-.1.i.1.1.1.i.1.1.#.#.' ' #.' ' -.-.-.#.' Y -.1.i.g.b.g.i.' A #.A i.A ' Y -.-.#.-.-.1.1.1.1.3.3.-.1.1.i.i.-.;._ -.&.$.$.y.",
"g.1.-.#.-.1.1.1.1.1.#.Y f h h A A Y ' ' #.-.#.Y Y 1.1.1.-.i.1.' 1.#.1.#.g.#.1.-.1.-.#.-.i.1.1.1.=.:.-.-.-.-.-.-.r.5.5.h.D.e.D.J.",
"g.g.-.#.#.-.1.i.1.1.1.1.#.Y #.#.-.#.#.-.1.i.-.#.-.-.1.1.g.M.M.g.1.g.g.i.-.i.i.-.i.1.1.i.i.i.i.g.=.;.i.i.3.;.;.;.r.x.b.x.h.y.D.U.",
"g.i.-.' ' Y #.' Y Y Y Y u u 3 u 7 7 3 u h h f 7 7 u u u h Y Y h u u f 7 7 u f 7 ' Y A Y h h f h b Z ( ( I Z I N b s N N V ^ / ^ ",
"f u u 3 ; % % % Y Y Y Y h u u 7 A A A Y -.#.Y A Y Y Y h ' -.#.' h A A A A ' ' ' i.1.-.#.' A Y h L ! =.;.=.=.' W ( ( ( _ e.e.5.e.",
"i.g.i.i.g.1.1.1.-.1.1.1.-.#.Y Y Y ' Y ' -.1.#.Y #.-.#.' ' -.-.#.#.' ' ' -.1.i.1.1.1.-.' ' ' ' Y L ! ;.=.;.' I I ( ' ' -.e.e.h.e.",
"#.#.#.-.-.#.#.#.i.g.1.g.1.-.' Y -.' ' #.1.1.#.#.#.-.-.' ' #.%.#.#.' ' #.1.g.i.g.i.i.i.#.' -.#.' ! ! =.;.-.;.' I A ;.r.r.e.e.e.D.",
"i.g.i.g.i.i.1.1.g.g.1.1.-.' A h i.-.-.#.1.1.-.-.' -.-.#.' -.-.#.-.Y ' -.i.i.i.i.-.i.1.#.Y #.-.Y ! ! =.=.=.=.=.( _ 5.h.h.e.e.&.D.",
"' ' ' ' ' Y ' Y ' Y Y h Y A h f ' Y f f f h h h f A Y h h h Z Z h u f Y #.Y h h f A A u u A Y f l p 7 b b b N 7 I ( ( ^ V s B / ",
"; % 3 3 3 7 u u 7 7 ; 3 u h f u #.Y f 7 u h f f f Y #.' A Y Y D Y h h #.-.#.Y h f Y ' h Y 1.i.-.! I I b I ' I I ' ( A N N ^ B s ",
"Y Q P D D Q P D P Q :.:.Q Q ..:...D Q z D q.:.:.4.Q Q Q Q Q :.q.I =.=.=.' ;.' N I 3.M.M.g.k.g.g.b.p.=.=.=.=.-.;.=.;.g.;.=.I =.i.",
"z D z i e i D i P Q :.:.Q P D P Q D P i i :.D D ..Q Q :...P Q Q N I I I I ' =.I I ;.g.;.=.;.;.;.;.=.I I I =.' ' ' -.;.=.I I ' -.",
"Q *.Q D D P P D ..:.q.q.:.Q Q P :.P Q P Q q.Q :.:...:.:.:.:.:.4.' =.=.I I =.;.;.3.g.g.g.g.g.g.3.p.;.=.;.=.;.=.;.-.;.;.-.=.=.=.;.",
"i i i 8 1 8 8 8 i z D D i e 8 1 e = i 8 i ..D D D z i 8 e i Q q.N N b b b f 7 7 =.=.' I I =.W I I I I I I I I b b b b Z b I b b ",
"i i i e 8 e 8 1 8 i i z i e 8 1 i = i 8 i Q i D D D D i i D Q q.I I ' ;.=.A b 7 ' I b b A I b b L Z A A I A b b b b I ' =.;.=.( ",
"P ..:.Q Q Q P z D D Q :.:...Q Q 4.D Q D Q :.z Q D :.4.:.Q Q Q :.=.=.;.g.b.r.=.=.r.;.' =.=.! ' I =.=.=.;.;.=.=.;.=.=.=.;.r.x.g.i.",
"D Q :.Q Q Q D z D D D Q Q P P D :.i D i i z 1 i 8 D Q D i i 8 8 b b I -.;.I A A =.A A I I L b b b I ( ( N A I I 7 A ( ' ( =.' ' ",
"Q :.q.s.m.s.4.Q ....Q Q ......Q q.D D D D P i Q D :.4.Q i D Q Q ;.;.=.g.r.;.' =.;.' =.-.=.I I I I =.=.=.( ' =.;.( ;.;.r.-.-.-.-.",
"D i i z D D D Q i i i i z i i 8 Q 8 i e i i # 1 1 D D i 8 i 8 1 L f f ( =.N b b b f 7 7 7 7 7 7 b 7 7 7 7 7 b b b b b b L ( I b ",
"P D D D D Q Q Q ......:.Q Q D D s.P ..Q Q Q i D z Q :.Q Q Q Q ..=.I ( =.;.' I I I ' =.;.;.;.;.-.=.' ( N b I ! -.W I I I W W ! I ",
"P D P D D D D P Q :.q.q.:...Q Q 4.D ..:.q.m...4.Q Q :.:.:.Q :.q.=.' =.;.=.! I I ;.;.3.g.k.g.3.i.r.;.=.A I I -.i.g.g.g.g.3.g.g.g.",
"Q P D D D D D D z Q :.4.:.:.:.:.:.D ....q.m.:.4.4...Q :.Q D P 4.( I ( =.=.=.I I =.-.;.i.g.p.;.3.g.;.W L L I -.;.=.-.;.;.=.=.;.;.",
"Q P D D D i D D i D 4.q.:.Q Q :.:.Q :...:.s.Q D :.P P Q Q z D q.I W ' I ( ' I A I I =.;.;.g.3.g.;.=.W A b Z =.;.=.;.;.;.=.' ;.r.",
"D z i e e e 8 i i D Q Q Q D D D Q i P z P 4.Q D z i i D i i D Q b b b b b A I 7 ' ' ' ' =.I I I I I Z b f f b I ' =.=.;.;.;.-.-.",
"z i i e 8 8 e e i z z D D z i i D i D i D q.P D e z D i e i D D 7 b f 7 7 L I f =.=.( A f 7 7 7 f f N b f b b A 7 f b b I I A b ",
"Q Q P D D D D D D D D D Q Q D D s.:.4.D D 4.z i D :.:.D i D Q D L W W I ' ;.=.I I I b Z A I I ' N N =.=.=.=.I W I I ! ;.g.;.;.=.",
"K D z k e e k D i D P D z D K k q.Q z D D k k D e ..4.K k K Q D p Z D D K D K D z z z e i D P z i h Z Y Y Y A A f A Y ' #.#.' ' ",
"K K D k i k z K D P ..P P ..Q K a.:.P Q ..P K Q Q a.s...D P Q K L W Q Q Q | Q | :.4...P P Q Q P Q #.' #.-.-.#.#.' ' -.-.1.1.1.1.",
"k i i e w w i k 8 w e w e i i w Q k w e e e w e k ....k 8 w w 8 7 w w i l i l i 8 i e e e i z e f f f f f h h A f h A Y Y h h A ",
"Q ....Q Q Q Q ..k k k k z K D z Q D k i z D z k i K Q D i z D D i l l l z D D D 8 z z z z P P D h h h f h A Y Y Y ' ' ' A f f A ",
"P ..........Q ..P D z D P P K K P K k k D P K D i D K D z K ....z z z D D D P D ..4.4.......Q P Y A A A Y ' #.#.i.1.1.-.' f f Y ",
"i z K K P D K P P k i k D D k z k i i e k D D k k k k i i k D P 8 e i i l i z i ....Q P P Q Q P Y A A A A ' #.-.i.-.i.1.' f f ' ",
"k D Q ......Q ..:.D k K P K D z D D D z K ....D K K K D K K Q ..i z z z z z z D Q ....P Q ..:...W ' ' ' #.-.1.i.i.i.i.g.-.A Y 1.",
"+ = 8 w w w 8 w z 1 @ 1 8 1 = 1 1 8 1 = w k i 8 8 1 1 1 8 w k D # = = 1 1 1 1 1 P Q P e e i e e 7 7 7 u u f A A A f A Y f 3 u ' ",
"z P P K K Q K i i i k z D D k e e i D K D D K K z Q P k w z K P Q P P ..:...P P 4.:.Q D i e i z h A A Y A A h f u 7 u f A A h f ",
"D P P D K Q P k P P P ......P D z D D K K D D D z Q ..K z D K D e 8 e z D i 8 e e 8 e e i z P Q ' ' ' ' ' ' Y Y A A A ' #.#.' ' ",
"Q ..P K P ....K z k k z k D k i K K D z k k k i k P ..Q D z k k P P P ....Q P D e e e e i D P Q h A h A h A A h h f f h A ' ' Y ",
"K D D z D K K D Q Q P P Q Q P K D z i e e e e e k D P K k i e e z i z P ..D i i D z i z z z z z #.#.' ' ' #.-.-.' ' Y ' #.-.-.1.",
"e w 8 w e e e e 1 # # = = = = # z k e e i k k i D D D z i e i z i e i D P z e e e 1 8 8 i z z z 7 7 ; ; 3 7 u u ; ; 3 ; 7 7 7 u ",
"i w 8 i k k i i D K D K Q Q P K D z i k K P K D K K D D k k D ..P P P ....Q P D z i 8 e z z z z Y A A A A ' ' #.' #.-.#.' ' ' #.",
"z i i K P K D K i k z D P Q K D P D z K Q Q P D D z z K D z P 4.z i e z D z i z :.Q z e z z i e u u f f h A Y Y ' #.-.#.' A A A ",
"k 8 e D K z i z k k D K ..Q P D P K z D Q ..D k k i i D D z K 4.P z i z D z z z ..D e 8 e i i e u u f f h A A Y ' -.-.-.' A h h ",
"8 w k k k i k k w e i D K K z k z K D i K :.P 8 e i k i e i D P k z D z k k k i ..k 8 w e w e k u d C h d d C ` *.` *.*.*.R n n ",
"1 8 e e w 8 8 w e i k D K P K D K Q D k K :.Q w 8 e k D D P ..4.8 8 w w w 8 w 8 4...D k k i e w u d C h d d d C d 6 6 n d 6 6 6 ",
"P Q ..Q Q P K P e e e k D K D D ..Q K i z Q P i k D Q ..Q Q Q ..D K K K K D D K :.q.4.Q ..q.4.P ` ` ` ` C R R ` C n n R ` R ` ` ",
"K K P P K D K K k i i i k z z k Q P k 8 e D D i z P ..:...P K K D k k D K D z D e P Q k K q.4.i z d y y d d d d n d 6 C n C C ` ",
"k z D D D D D P k i i i i k i e K D e 8 8 i k e 1 i K Q Q P P Q D i i K P D z D k ..:.z D 4.Q 1 d d 6 d d d d d C 6 6 d d d C R ",
"z D D K K K P ..w 8 1 8 8 8 1 = D k i w w i i e w i D K z k z D P k i P ..K D K i ..Q k D 4...e d d d d d C C C C n n C C d n R ",
"e e i e w e i k 8 8 8 w i e 8 1 D z z D D z k k D K K D i w e k i = # e k w 8 e = 8 8 1 w D D w 6 6 6 6 : : : 6 d d 6 d d 6 6 d ",
"Q Q Q P D K P ..z D K ......Q K K D P Q ..P D z k z D k i k D Q D 8 8 D Q D i D Q Q K k D Q Q z C ` ` C d d d C ` ` ` *.*.` *.*.",
"4.i i i D z w D k w k ....D k K z K z i z ..z = e 8 w k i w k ..i i i e i k i 8 P Q K k i D D z d C C C 6 6 6 d ` ` n C *.*.R *.",
"= k P i D 4...8 z i z ....D z P K Q P D Q :.Q w i e i k i i D ..i k i i k k k e D P K D D ..:...*.*.6.` C 6 d d R ` C ` f.u.*.*.",
"q.1 o i i + = :.i w i P P k i z w e w 8 i D k 1 8 1 8 w w 8 e D w 1 1 w w w 8 8 K K D i i z k e n C ` C 6 6 : 6 : 6 6 d *.` d C ",
"# K D w 8 i i X 1 = 8 i k 8 1 w e i i i z Q K i z D K K D D P ..D z z K Q P K K :.:...P K P D e d C ` ` C n n C 6 d n R *.*.C ` ",
":.:.e D z z S.T.1 1 1 w w 8 1 1 k k i k D P K z k D K D k z D P K i k P ..P K Q P P K K P ..P k d C ` ` ` ` ` *.C R C ` 6.*.` *.",
"k /.)././._.(.K.w w e i i e w w i e e e i k i i 8 k k i w w i i i w 8 z K k z K Q Q K D Q ..D 8 d n C R R C ` ` R R C C ` ` C 6.",
"..E.Q.~.!.R.W.B.1 8 w w w 8 8 8 D D z k z z k z i D P D i k D k P k k ..4.Q Q 4.s.a.q.4.q.q.*.y R ` R ` ` *.` *.R ` ` ` *.*.*.j.",
"= w . 8 =   w k # 1 = # = = = # 8 1 1 1 = = # = + 1 1 = + @ = @ 8 @ # i k e w z z z k D Q *.z 6 6 6 6 6 6 d d n 6 6 6 d C d d *."
};
