/* XPM */
static char *result[] = {
/* columns rows colors chars-per-pixel */
"64 64 28 1 ",
"  c #402615",
". c #785E3E",
"X c #705639",
"o c #63482C",
"O c #584027",
"+ c #6A4F34",
"@ c #4B3019",
"# c #305965",
"$ c #427A7F",
"% c #2A4F5C",
"& c #0D2336",
"* c #1D394A",
"= c #234050",
"- c #183243",
"; c #52371F",
": c #3A200F",
"> c #957959",
", c #826C4D",
"< c #36656F",
"1 c #478387",
"2 c #142B3C",
"3 c #B29775",
"4 c #65A0A1",
"5 c #A38869",
"6 c #462A18",
"7 c #361C0E",
"8 c #589396",
"9 c #C3A388",
/* pixels */
" .XoooOOOooo++o+oooOooOOOO@#$##%&*$##%=-@ ;:O+ooo++oX+++++o++X+ ",
"O>,+XXX.XX,X,Xo+++X++XX+;Oo<1##=&-$##%=2;;OoO+oo+XXX,X,.,XXX,,.o",
"O,>+XXX..X..XX+oX+XooXXXOoo<1##=&-$##%=2;;Oo+o,.XX,X..X..XX..XX+",
"O3,+.....X....Xo++X+o+.+Ooo<1##=&-$##%*2  O+X.,.X.++.X.,...XX.Xo",
"O,+.......XX...+XXX++X.oooo<1##=&-$##%*2;OO.X..,+X.X,X...XX.,.Xo",
"O,,X.....,.,...++.+++X.Xooo<4-#=&-$$-%*2;oo.X+XX,,,.....X....X.o",
"O,>.X..XX.......XX+XX.XXooo<1##=&-$##%*2;Oo.XO@.,XX...,...,...Xo",
"O>,XXXX......XX+..XXo..Xoo+<1##=&-$##%*2oOo+,,+X,.X.........,X.+",
"O,,OO....,..XXXX.XXX.XXX+oo<1##=&-$##%*2;;@oX..,X,.X.XXX..,,.XXo",
"O,,+X.....XXX..X.XXX.XXX++o<1##=&-$##%*2 ;O.X,o++X...X.X....,XXo",
"O3X+......XXXX.XX.......o+o<4-#=&-$$-%*2oO@o,+++,X..X.XX...,...o",
"OX,+X......XXX......XX..+++<1##=&-$##%*2oO+..+X.+,...XX...,.,..o",
";,5,X.......XXX....XXX..+++<1##=&-$##%*2O;o+,.,.+....X.........+",
"O>3.,X.......+X.X...XX..+++<1##=&-$##%*2O;Oo+XX,.+.........,...+",
"O,>+@...,....XX...X.....+o+<1##=&-$##%*2Ooo.X,+,.X,..,.........o",
"OO>,X....,..X+X+....X...++o<4-#=&-$$2%*2;O+ ,,+,.>..,...,..,...o",
"O3Xo+.......XXXX..+.....oo+<1##=&-$##%*2Oo+oX,.X,..,...........o",
"OX>....XX..X..X...X.....+++<1##=&-$##%*2OO+oX.+..>.,.....,,.,..o",
"O5>>>...+..X+.X...X+....+o+<1##=&-$##%*2OoO.,X+,XX..,.,.,,.,.,.+",
"@,XX++++++oo++o++oo++X+XoOo<1##=&-$##%*2; Oo.X++.XXX+XX+XXXXXXXo",
"6;Oo6OOOO;;O;@ @@;;OOOOO;o;<4-#=&-$#-%*2  @OOO6OOOOOoOOOOOOO;;  ",
",,,.,,.,,,,,,X@.,..,,,,,...<1##=&-$##%*2oo+,,,>,,,,,.,,,,>,,>,,,",
">>5,>,>>>>>>>+O>>>>>>>>>,,><1##=&-$##%*2o,+.>>>>>>>>>>>5>>5>>>>>",
"XX++XX+.XX..X+;,5Xo++XX.++o<1##=&-$##%*2o;oo+XX......X..XX.XXX..",
"X,O++XXX+XXXX+;,3XX+X+O+Ooo<4-#=&-$1-%*2@;ooX...X...XXXXXX.XX+XX",
".,.++OXXXXX+X+O,5X++++X.ooo<1##=&-$##%*2Ooo;XXX.+.......XXXXX++X",
".oX+O,XXXXXXX+;>5XXXX+o+o++<1##=&-$##%*2O7+.+...X......+.XXXXXXX",
"+X+O,X.XXXXXX+;,>+X.o+X.ooo<1##=&-$##%*2;OOo+XXX.X.....XX.XXXX.X",
"6,.,Xo.X.....O;,>++++XXXooo<1##=&-$##%*2;O++++XX+.....X...X++XXX",
"oXX+,X++XX...+O.>X+X+XXXoOo<4-#=&-$$-%*2;;o+o@X.XX......+X+++.XX",
"o+.XXXXX+XX+.+;,>.XXX.XXo+o<1##=&-$##%*2;o@o+O+X+X....XXX++++XXX",
"X+XX.XX+...XX+;,>.X.X.+X++o<1##=&-$##%*2;;O+,X+,oX...X+..XXXX.XX",
"+X.@.++.X.XX.+;,,.X...Xoo++<1##=&-$##%*2O;+o++OX.......X.X.X+.XX",
"oXX.+XX,X+XXX+;.>.X.XXoXo++<1##=&-$##%*2 ;OoX+O+.....X.X.X.XXX.X",
"+.X+++..XX++XXO,,.....X+o+o<4-#=&-$$-%*2O;Oo,++.XX.....++X.X+X+.",
".,>XXOX.XXXX.+O.,..XX.XoOOo<$##=&-$##%*2;;+oX+XX......XX.X.X+XX.",
".@XX.+.+XX+X.+O.,.XX.XoXoo@<$##=&-$##%*2; OoOXX.....X.+.XXX.XX+X",
",+X..X...XXX.+O.,.XX.XXXOoo<$##=&-$##%*2O;o.,+X........XX...X.X+",
"o...+....XXX.+O.,XX+....;o+<$##=&-$##%*2O7o+X..+......XXX.X....X",
"X.,,...X.X+XX+OX,X+X....+o;<8-#=&-$$-%*2O;OoX..XXX...+X+.....X..",
"XXX.,X..XXXX++O,>X..X+..++o<$##=&-$##%*2;;;;O.,,..X..+...+.....X",
"+X.,X,XXX++X++o.,X......+oo<$##=&-$##%*2OO;+,......X....+X......",
"o..X,,X+XX+XX+O.>X+.....ooo<$##=&-$##%*2O;oo+.>.X......+.X+.>...",
".XOOo...XXXXX+o.,....+.+ooo<$##=&-$##%*2;Oo+..XX.......XX.....,.",
"X,,>....+X..X+O.,X.....X+++<8-#=&-$$-%*2OOo+..,...X...X.X+..,,..",
"@OX+,,..X+X.XX+,,XX+...Xooo<$##=&-$##%*2OOO+........X..X+.....,.",
"+XX.X...XXX.X+;..XXX...Xooo<$##=&-$##%*2OOo+....X......X.X......",
"6,,.....XX...X;,++o+++O+ooo<$##=&-$##%*2;;Oo+++X+XXoXXXX++XXXX+X",
" OOOOOOOOO;@66 @;@;OOOOO;;;<$##=&-$##%*2  @;OOOOOOOOOOOOOOOOOOO ",
"9,>>5>,,>,>,,,>,,>,>,,,,.,.<8-#=&-$$-%*2oo..>,>,>,>,>,>,>,>>,>>>",
">5555355555533>3>,>,>>>>.,.<$##=&-$##%*2..,>>>55>>>>>>,>,>>,>>>>",
",,,...X...,.X..XX...X..Xo+o<$##=&-$##%*2OOo+...X..X...X........X",
".,o..+X....X...X..XXXX+.++o<$##=&-$##%*2OOo+X..XXXX...X.........",
",O+..XX..X..X.......+XX.+++<$##=&-$##%*2OOo++XXX..X.X.+..X......",
"+X,XXXX+...XXX...X....X++Oo<4-#=&-$$-%*2OOo+....X.....X........X",
"OX,.XX.....XX..X.X....XX+++#$##%&*$##%=-OOO+...+...+..X....,.,.X",
",.+.XX.....X+XXX..+X.++X++o<1##=&-$##%=2O;o+.X..X.....+........X",
".;6XXX.....X+XXXX..XXX..+oo<1##=&-$##%=2OOo+.X.XX+...........,..",
"+X...X+..XXXXX.X+...X..Xooo<1##=&-$##%*2OOo+.XXXXXX+.X+.....,...",
"X>.X.....XXXXX.X..X.....ooo<1##=&-$##%*2;Ooo.XXXXX...........,,.",
".,,..+...XXX+X.X..XX+.XXoo+<4-#=&-$$-%*2OOooXXXXX.XX.+........,.",
"X.,OXX....XXXX......X.XXoo+<1##=&-$##%*2OOOo.XXXXXX+.XX......,,.",
"X.+,XXX....XXX+...XXX...ooo<1##=&-$##%*2OOo+....XXXX..XX......,.",
",O+XXXXO...XXX......+XXXooo<1##=&-$##%*2;Oo+...+XXXX.....,......"
};
