/* XPM */
static char *a214002a2e634c1593f5c0c4ef2c732aWx8gRgdUnOGBz0TB[] = {
/* columns rows colors chars-per-pixel */
"36 64 131 2 ",
"   c #0C0606",
".  c #0A0708",
"X  c #0D0C0B",
"o  c #130D0D",
"O  c #130F10",
"+  c #190F12",
"@  c #151414",
"#  c #1B1416",
"$  c #191916",
"%  c #1C1718",
"&  c #1D1B1B",
"*  c #221416",
"=  c #211719",
"-  c #221D1E",
";  c #291C1E",
":  c #1F211E",
">  c #22211F",
",  c #231F20",
"<  c #291F21",
"1  c #1F2322",
"2  c #252323",
"3  c #2A2525",
"4  c #252826",
"5  c #2A2927",
"6  c #2B2728",
"7  c #272928",
"8  c #2C2A2B",
"9  c #312326",
"0  c #312628",
"q  c #312C2D",
"w  c #382E2F",
"e  c #31312F",
"r  c #332F30",
"t  c #392F30",
"y  c #343232",
"u  c #393435",
"i  c #363837",
"p  c #3E3936",
"a  c #3B3738",
"s  c #373938",
"d  c #3D3A3B",
"f  c #443135",
"g  c #403738",
"h  c #423C3D",
"j  c #483C3E",
"k  c #3E403F",
"l  c #41403E",
"z  c #443E40",
"x  c #4B3E41",
"c  c #3F4140",
"v  c #454242",
"b  c #4A4546",
"n  c #4C4648",
"m  c #4C4A4B",
"M  c #504547",
"N  c #534C4D",
"B  c #534F50",
"V  c #5A4E52",
"C  c #555252",
"Z  c #5A5555",
"A  c #5B5758",
"S  c #5E5A5B",
"D  c #625559",
"F  c #635B5D",
"G  c #635F61",
"H  c #695E61",
"J  c #656364",
"K  c #696565",
"L  c #6C6769",
"P  c #6E6A6B",
"I  c #706768",
"U  c #726C6D",
"Y  c #786E6F",
"T  c #716F70",
"R  c #747273",
"E  c #7A7475",
"W  c #7D797B",
"Q  c #817C7E",
"!  c #81817F",
"~  c #837F80",
"^  c #8B7E82",
"/  c #868283",
"(  c #8C8486",
")  c #8E8588",
"_  c #8D8A8B",
"`  c #928285",
"'  c #918788",
"]  c #958B8D",
"[  c #998D8F",
"{  c #91908E",
"}  c #998F90",
"|  c #969293",
" . c #9E9396",
".. c #989896",
"X. c #A49B9C",
"o. c #AB9FA1",
"O. c #B09DA1",
"+. c #A4A2A2",
"@. c #ABA3A5",
"#. c #ABA7A8",
"$. c #B3A7A9",
"%. c #B6ACAC",
"&. c #BBACAF",
"*. c #BDB1B3",
"=. c #C3AEB3",
"-. c #C1B3B4",
";. c #C2B7BB",
":. c #C4BBBD",
">. c #CBBFC1",
",. c #C6C0C0",
"<. c #CDC3C5",
"1. c #D1C5C6",
"2. c #D4C5C8",
"3. c #D3CCCD",
"4. c #DACDCF",
"5. c #D7CCD0",
"6. c #DBCFD2",
"7. c #D6D1D3",
"8. c #DDD2D3",
"9. c #E1D3D5",
"0. c #E3DBDC",
"q. c #E8DEDF",
"w. c #E6E0E2",
"e. c #EAE2E3",
"r. c #EFE4E8",
"t. c #F2E7EB",
"y. c #F3EAEC",
"u. c #F7ECF0",
"i. c #FDF4F4",
"p. c #FFF6F9",
"a. c #FFFEFD",
/* pixels */
"V N f = w - > 5 > > 5 > > 5 > q , r 1 1 a a 7 1 6 @ a % 7 1 2 6 , , % < ",
"D D M N Z l > > > > u > > > 5 : 2 a 6 2 6 % & 6 1 8 1 8 @ r , 2 r A V B ",
"Q I j j l g : 5 e > > > 0 > q > 2 r , 1 8 , 6 r 6 6 1 8 a 1 6 1 r r r z ",
"j b q = > e $ > $ +.! o > 5 9 5 , 7 , 6 r 1 6 % 1 1 @ r 6 6 % 6 , r 6 = ",
"* g N 5 > 5 > 5 > l l 0 5 ; * ; 1 % 8 6 6 & 6 1 6 8 k 7 1 6 1 r 6 @ % r ",
"# 5 S p > > 5 5 e o q > o F :.1.S 1 6 1 2 2 6 6 , r R r 8 1 6 , r a r 6 ",
"N $ e t 5 5 > > > e > > H 4.8.i.;.i r & 6 7 & 6 6 r n n % 6 2 1 @ #.R O ",
"a.K > 8 $ e > 5 > > 9 5 N :.-.4.5.6 r 1 6 6 1 m J 8 & a 1 , v n , a a 8 ",
"i.3.5 > > e $ e e > 0 > 9 Y -.*.J 8 , 6 6 , & z a 2 4 r T k C G % 6 6 , ",
"E Y 5 e 5 e > $ > > e > * q l w 8 & 2 2 6 r , 2 & , 7 r A r y r , , 6 6 ",
"$ > > > > $ 5 e > > > w 9 ; ; > & 1 r , & 8 2 , 7 r 7 % 7 & 8 y C 6 % 6 ",
"9 l 0 5 e > > 5 5 5 > q 9 > ; w 8 6 6 6 , 1 1 q 1 r r 2 6 1 , 8 J r , 1 ",
"w q > # $ 5 e $ > 5 > > > > > > 1 , 1 6 8 1 1 6 & 2 8 y r 6 , 4 r 1 6 r ",
"= * N I l > > 5 > 5 5 5 q q 0 9 , 6 , 1 2 6 6 , q 1 2 6 , 7 , 6 & , 6 6 ",
"9 F 2.y.,.l $ 5 5 5 > > > > > > 2 r 1 , , 1 8 , 6 & 8 6 6 6 , 2 8 6 , , ",
"* } q.>.e.U > > 5 > > 5 5 > 5 0 , 6 , 8 6 , 6 1 6 & r 1 , 7 7 2 1 1 6 7 ",
"> ! y.0.7.B & s 7 , 8 2 r , , 6 6 , < 6 1 6 8 6 7 < 7 < 6 r 8 , 1 7 8 7 ",
"* f ! @.T > 4 R C O 1 1 , q , 6 , r 8 < 6 , = 6 , < 8 < , % , 8 7 % & % ",
"5 > > > @ 6 2 & z r 6 2 & 6 & 6 , , z B 6 & 8 , 7 , & < r r 7 , % d B a ",
"e 5 5 # a q , 6 y R 6 & y q 6 , 6 % z A z z z 8 , 6 r 7 , , , < B $.<.<.",
"& & 8 q h 2 % z , Q a 2 , % 1 , 2 6 O , S J x m B A B a 6 6 r r ] q.9.p.",
"q 7 3 2 & u q 4 % z x z 6 6 r 7 , r , 6 G P G L a s 6 , , 6 < % G >.=.4.",
"2 @ , 2 2 , % 6 r 6 a a v S C & 6 a C C x A J G < < 6 6 6 , , 6 g ' o.[ ",
"r y d 3 I a - q % z r % 1 8 m 1 , d k 6 8 r r r S y % , r 6 6 8 = = j + ",
"d m P T ~ x - r * G z , 6 6 7 & , & 8 + 6 6 % , y P 6 , , 6 ~ x < x , 2 ",
"$ m m s , % y % < x x 6 1 , O d a , 6 r 6 - q , 6 6 6 a y z k z , y 1 2 ",
"1 8 @ 1 , y ^ >.^ + @ q & 8 r % % , + 2 , 6 y , 8 & , z a 6 - k 2 1 2 4 ",
"1 @ r 8 O E 5.5.u.T % 8 8 1 7 1 1 L m r 6 6 % , 6 z x q , , r i e & 7 7 ",
"7 1 1 7 7 W >.r.t.~ = % 6 , 7 s z A d r S ^ B z _ d < 2 q 6 O A d , 6 3 ",
"1 7 7 7 o G 5.>. .q , 6 z J k s 2 & r 8 8 a 6 6 a d , , O a z W d 2 7 2 ",
"7 1 & y q + z D 9 < 0 = z m X 7 y , 8 r 8 6 6 , 8 z y a m d 6 + 8 7 3 , ",
"1 1 8 1 < < < % < < 0 , 1 7 7 7 & r 6 , r % 6 6 % d | r d , & r % 3 3 < ",
"4 : 4 4 > > 5 5 > 4 5 > > 5 > 5 6 < 0 6 = = 0 6 , 2 6 6 8 8 6 1 , 3 ; 6 ",
"> : 4 5 5 > > > > e > > t > + q < < 0 G n r < = 6 2 , , 1 1 6 6 0 3 = 3 ",
"e 4 > 4 > 4 > e 5 > > > 5 5 e > z 0 V X.< = r r 6 6 1 2 6 1 1 6 ; < 9 j ",
"> > > e i 5 > > > 5 5 5 > : > > 0 % V =.z = , , 2 2 7 8 8 8 7 6 - 3 q N ",
"e e > > > > > e @ { ! : > d e 4 < < 0 ^ @.G = 0 2 < 7 6 8 8 7 6 8 5 ; q ",
"Z N p 5 w 0 5 e > Z l > 5 2 O 5 < r , 0 G z < 6 6 6 2 2 1 6 7 6 - = # ; ",
"F D l l Z l > = 8 > > > > q q , , a a = % , r % 6 2 2 6 1 6 1 6 t b N Z ",
"Y Y N l l l 0 q > > > 5 3 2 4 3 6 6 < < 6 , 6 6 & , 6 6 r 6 6 1 q l l b ",
"l N 9 o > > 9 0 6 0 < , 8 6 , 3 0 % r % 6 1 0 , y c & 1 6 1 & 6 > > - - ",
"> g H 0 w > 0 $ 2 x @.6 < 6 r 0 8 0 2 6 r , , , d J 8 r y & r 1 > 5 > > ",
"> * D l * > 0 > V o.x 0 < = < . % 8 , 6 6 , 2 , r y a 6 6 7 6 % > 0 9 > ",
"> w > 9 0 5 f ! >.x * * < x ] ^ r 2 1 2 , 1 r 2 7 X m k , 6 6 6 > 9 > > ",
"5 $ > > 5 e %.0.O.+ 9 ; x >.5.u.^ 7 r 7 1 2 r , 1 6 z v y , 8 2 5 > > > ",
"$ e 5 > > H 8.1.z < < * ^ 9.6.9.<.7 7 2 8 1 2 2 & a 6 % m m , & q w 5 > ",
"5 > > e o Z X.V 9 9 9 x f O.;.>.~ 1 1 , 6 7 1 6 8 1 1 % C T 7 7 e e > e ",
"> > 5 > 5 * p $ = f * ; 9 x ^ G , 7 8 2 1 8 1 7 1 6 1 n y r y , > > > > ",
"> M q > 0 q # q 6 8 1 , 8 , @ , 7 2 7 1 7 q @ 7 7 i S r & c 8 , > e > > ",
"9 9 > * , , < r % 6 r , 1 8 8 1 % 6 8 & 7 % y % 1 n P c 1 r d 7 > * 0 $ ",
"w = g E 8 , , 2 7 , 7 , 1 4 7 1 , 8 % 8 1 m C 1 7 r 1 r a m G < e > K l ",
"+ D 9.e.>.d 2 3 6 , 4 r 4 4 7 1 6 1 1 r 6 A r % 1 7 & 7 7 a B 1 > e ! X.",
"< @.5.>.w.~ @ 2 , & , 1 % , 8 1 , , B k A a < 6 1 6 r r , , 8 = 5 $ > i ",
"+ Q p.q.e.n 2 r W c 1 r s y c A x A A A G , , 6 r % - = , q < 6 > > > i ",
"3 u ( @.P < , q T k @ , r 1 7 c z S C E G A S L a 6 < 6 r 6 % 8 5 $ : $ ",
"3 - , , 3 3 8 < & z n 7 1 8 1 & & y P D r q 6 8 6 6 6 z A z , 6 > 0 Z > ",
"< 8 < , 6 < & r 7 < b c , 7 8 1 & S x , 6 < < , , h L B N 6 q - N -.4.4.",
", < 7 6 s y 6 8 , 8 @ _ W X & , B N < & r 6 < 6 < , r < 6 % q g  .8.9.y.",
"r 6 7 , 6 6 < y , i % < m 6 8 6 d y & , r , < 8 6 q 6 , 3 q 3 % H &.1.1.",
", , < 6 < & & , 6 % i + ~ B , , % , 6 8 , , 6 , O < 6 6 & 3 4 3 g [ $.o.",
"y 8 1 6 6 6 6 r 6 6 8 % ^ i 6 , 7 4 6 1 1 r 6 , W b & 7 4 2 & y # 0 0 9 ",
"z r 4 , 4 6 , & < & & m Q , & y r , 4 , , 6 , , o.S & 4 e y : & e g > > ",
", % 1 8 , , 6 6 6 , 8 & , r < & , & 8 7 7 4 % 7 $ 1 1 & $ > 5 e > e e > ",
"7 , 6 , & d ~ #.W 6 < , r % 8 r 4 7 8 & , r 1 2 7 1 4 8 e 4 > > > : > > "
};
