/* XPM */
static char *_f6666223da24ed09b6ddf3279512fe1gaXpyovS22iF5IYm[] = {
/* columns rows colors chars-per-pixel */
"64 64 33 1 ",
"  c #EF9B0F",
". c #F9AF05",
"X c #FFB900",
"o c #FFBB00",
"O c #FFBF01",
"+ c #F9C305",
"@ c #FFD400",
"# c #FFD900",
"$ c #FDDA02",
"% c #FFE000",
"& c #FFE700",
"* c #FFED0F",
"= c #FFF100",
"- c #FFF200",
"; c #FFF400",
": c yellow",
"> c #FFD02D",
", c #FFE429",
"< c #FFEE2F",
"1 c #FFED3F",
"2 c #FFFD49",
"3 c #FFFE4A",
"4 c #FFEE74",
"5 c #FFEE75",
"6 c #FFF77D",
"7 c #FFE583",
"8 c #FFE584",
"9 c #FFF9B0",
"0 c #FFF9B1",
"q c #FFFACC",
"w c #FFFACE",
"e c #FFFBD0",
"r c #FFFBD1",
/* pixels */
"                     +####################,444444444555555555555",
"                     +##@##@#@@##@#@@##@#@>444644444555555555555",
"                     +###########@########,574444444555555555555",
"                     +#@##@###@#######@###,544444644555555555555",
"                     +##@##@##@##@##@##@##>555554455555555555555",
"                     +#############@######,555554455555555555555",
"                     +######@#############>555554555555555555555",
"                     +##@##@##@##@##@##@#$,555555555555555555555",
"                     +#@#@##@##@#@##@##@##>455555555555555555555",
"                     +#####@##############,455555555555555555555",
"                     +###########@@#######,455555555555555555555",
"                     +###@##@##@####@##@##,455555555555555555555",
"                     +###@###@#######@##@#,644555555555555555555",
"                     +#@#########@#@######,444555555555555555555",
"                     +###@@#@##@#@#####@##,444455555555555555555",
"                     +###############@##@#>444555555555555555555",
"                     +@@##################>455555555555555555555",
"                     +###@@##@#@##@##@###$,455555555555555555555",
"                     +#@#####@##@#@##@#@##,455555555555555555555",
"                     +####@###############,555555555555555555555",
"                     +##@##@#@@@#@##@##@@#,454444444445444444444",
".....................#---------=----------*,,,,,,,,,,,,,,,,,,,,,",
"ooooooooooooooooooooo&::::::::::::::::::::-$$%%%%%%%$%%%%%$%%%%%",
"ooooooooXoXoXoXoooooo&::::::::::::::::::::;%%%%$%$%%%%%$%%%%%$%%",
"oXoXoXoXoXoXoXoXooXoo&::::::::::::::::::::;%%%%%%%$%$%%%$%%%%%%%",
"XoXoXoXoXoXoXoXooooXX&::::::::::::::::::::;$%%%%%%%%%%%$%%%$%$%%",
"oXoXoXoXoXoXoXoXXoXoo&::::::::::::::::::::;%$%%%$%%%%%%%%%%%$%$%",
"XoXoXoXoXoXoXoXooXoXX&::::::::::::::::::::;%%%%$%%%$%%%%%$%%%%%%",
"oXoXoXoXoXoXoXoXXoXoX&::::::::::::::::::::;%$%%%%%%%%%%%%%$%%%$%",
"XoXoXoXoXoXoXoXooXoXo&::::::::::::::::::::;$%%%$%$%%%$%$%%%%%%%%",
"oXoXoXoXoXoXoXoXXoXoX&::::::::::::::::::::;%%%%%$%$%%%$%$%%%%%%%",
"XoXoXoXoXoXoXoXooXoXo&::::::::::::::::::::;$%%%%%%%%%%%%%%%$%%%$",
"XoXoXoXoXoXoXoXooXoXo&::::::::::::::::::::;%%%%%$%%%%%$%%%$%%%$%",
"oXoXoXoXoXoXoXoXXoXoo&::::::::::::::::::::;$%%%%%%%$%%%%%$%%%%%%",
"XoXoXoXoXoXoXoXooXoXo&::::::::::::::::::::;%$%%%%%%%$%%%%%$%%%%%",
"oXoXoXoXoXoXoXoXXoXoX&::::::::::::::::::::;%%%%$%$%%%%%$%%%%%%%$",
"XoXoXoXoXoXoXoXooXoXo&::::::::::::::::::::;%%%$%%%$%%%%%%%%%$%%%",
"oXoXoXoXoXoXoXoXXoXoo&::::::::::::::::::::;$%%%%%$%%%%%%%$%%%%%$",
"XoXoXoXoXoXoXoXooXoXo&::::::::::::::::::::;%$%%%%%$%$%%%%%$%%%%%",
"oXoXoXoXoXoXoXoXXoXoO$::::::::::::::::::::;%%%%#%%%%%%%$%$%%%$%%",
"XoXoXoXoooooXoXooXoXo&::::::::::::::::::::-#%%%%%%%%%%%$%%%%%%$%",
"XXXXXXXX++oXXXXXXXXXX$::::::::::::::::::::;$%#%%%%%$%%%%%%%$%%%%",
">>>>>>>>>>>>>>>>>>>>>133222332222333222333<@@@@@@@@@@@@@@@@@@@@@",
"6666666666666666666669qwqqqqwqqqqqwwqqqqwq7+OOOOOOOOO+OO+OOOOOO+",
"6666666666666666666669wqwqwqwqwqqqwwwqwqqq7OOOOOOOOOOOOOOOOOOOOO",
"6666666666666666666669wqqwqwqwqwqqwwqwqwqr7OOOOOOOOOOOOOOOOOOOOO",
"6666666666666666666689wqwqwqwqwqqqqwwqwqqr8OOOOOOOOOOOOOOOOOOOOO",
"6666666666666666666669wqqwqwqwqwwwwwqwqwqr8+OOOOOOOOOOOOOOOOOOOO",
"6666666666666666666669wwwqwqwqwqqwqwqwqwww8OOOOOOOOOOOOOOOOOOOOO",
"6666666666666666666669wwwwqwqwqwwqwqwqwqqr8OOOOOOOOOOOOOOOOOOOOO",
"6666666666666666666669rwwqwqwqwqqwqwqwqwqq8OOOOOOOOOOOOOOOOOOOOO",
"6666666666666666666669wwqwqwqwqwwqwqwqwqrr7OOOOOOOOOOOOOOOOOOOOO",
"6666666666666666666669wqwqwqwqwqqwqwqwqwwr8+OOOOOOOOOOOOOOOOOOOO",
"6666666666666666666669wwqwqwqwqwwqwqwqwqwq7OOOOOOOOOOOOOOOOOOOOO",
"6666666666666666666669wqwqwqwqwqqwqwqwwwrr7OOOOOOOOOOOOOOOOOOOOO",
"6666666666666666666669wwqwqwqwqwwqwqwqwwwr8OOOOOOOOOOOOOOOOOOOOO",
"6666666666666666666669wwqwqwqwqwqwqwqwqwwr8OOOOOOOOOOOOOOOOOOOOO",
"6666666666666666666669wwwqwqwqwqwqwqwqwqqr8OOOOOOOOOOOOOOOOOOOOO",
"6666666666666666666669rwqwqwqwqwqwqwqwqwwr7OOOOOOOOOOOOOOOOOOOOO",
"6666666666666666666669wwwqwqwqwqwqwqwqwqqr8OOOOOOOOOOOOOOOOOOOOO",
"6666666666666666666669wwqwqwqwqwqwqwqwqwqr8OOOOOOOOOOOOOOOOOOOOO",
"6666666666666666666669wqwqwqwqwqwqwqwqwqqr8+OOOOOOOOOOOOOOOOOOOO",
"6666666666666666666669wwqwqwqwqwqwqwqwqwww8OOOOOOOOOOOOOOOOOOOOO",
"6666666666666666666669wqwqwqwqwqwqwqwqwqwr8OOOOOOOOOOOOOOOOOOOOO"
};
