/* XPM */
static char *result[] = {
/* columns rows colors chars-per-pixel */
"64 64 13 1 ",
"  c #402615",
". c #785E3E",
"X c #705639",
"o c #63482C",
"O c #584027",
"+ c #6A4F34",
"@ c #52371F",
"# c #4B3019",
"$ c #957959",
"% c #826C4D",
"& c #A38869",
"* c #462A18",
"= c #B29775",
/* pixels */
" .XoooOOOooo++o+oooOooOOoo@@##ooo@OoooO@oOo O+ooo++oX+++++o++X+ ",
"O$%+XXX.XX%X%Xo+++X++XX+Oo+XXOoo.X+.X+oXX+XXO+oo+XXX%X%.%XXX%%.o",
"O%$+XXX..X..XX+oX+XooXXXo+++OX..+XX+XX++X+XX+oX.XX%X..X..XX..XX+",
"O$%+.....X....Xo++X+o+.+oXX..X.X.XX+..XX++X+oOX.X.++.X.%...XX.Xo",
"O%%.......XX...+XXX++X.oXXX.XX+X.XXX..XXX+XX+XXXX+.X%X...XX.%.Xo",
"O$%X.....%.%...++.+++X.XXXX.+.....XX...+.XXX.XX...%.....X....X.o",
"O$%XX..XX.......XX+XX.XXXXXXX..XXX+X..XX..X...X.......%...%...Xo",
"O$%XXXX......XX+..XXo..XXX.X....Xo+.XXo.X.XXX+...%..........%X.+",
"O%%XX....%..XXXX.XXX.XXX.XX....Xo+X..OX..........X.X.XXX..%%.XXo",
"O$%XX.....XXX..X.XXX.XXX..XX....XXX+.+......%X...X...X.X....%XXo",
"O$%XX.....XXXX.XX.......X.XXX..X.XX.X....X....X.%...X.XX...%...o",
"O%$XX......XXX......XX.....+..+X..XXXX.X....X.%%.....XX...%.%..o",
"@.%.X.......XXX....XXX........XX....X.X.....XXX......X.........+",
"O$&XXX.......+X.X...XX.....X..X+X.......XX..XX.............%...+",
"O$%X+...%....XX...X......X..+...X.XXXX...X..XX....%..%.........o",
"O%$......%..X+X+....X.....XX......XXXX..+...+.......%...%..%...o",
"O$$.........XXXX..+.....XX.X..X...+.XX.............%...........o",
"O$$.X..XX..X..X...X.........+...X.XXX.....X........%.....%%.%..o",
"O$$.....+..X+.X...X+.....X.........XXX..............%.%.%%.%.%.+",
"#%X+++++++oo++o++oo++X+X+o+++o++X++o++X+X+o++++X+XXX+XX+XXXXXXXo",
"*@OOOOOOO@@O@# ##@@OOOOOO+OOoOOOOOoOoOOOOOoOOOOOOOOOoOOOOOOO@@  ",
"%%.%%%.%%%%%%X#.%..%%%%%%%%.%%.%%%%%%%%%$%%%%%$%%%%%.%%%%$%%$%%%",
"$$$$$$$$$$$$$+O$$$$$$$$$$$&&&$&$&&&&=&&&&&$&&$$$$$$$$$$&$$&$$$$$",
"X+X+XXX.XX..X+@%&Xo++XX...+XX...........XX..X........X..XX.XXX..",
"+++++XXX+XXXX+@%=XX+X+O+o+X++X+....X...X............XXXXXX.XX+XX",
".XX++XXXXXX+X+O%&X++++X.XXXX+.X......XX........X........XXXXX++X",
"+.XXXXXXXXXXX+@$&XXXX+o+X..X..+....X...........XX......+.XXXXXXX",
"XXX.XXXXXXXXX+@%$+X.o+X.+XXXXXX..X.............X.......XX.XXXX.X",
"o.XXX++X.....O@%$++++XXXXXX........+..X.....X.........X...X++XXX",
"oXXX.+++XX...+O.$X+X+XXX+oX.......X......X.....X........+X+++.XX",
"+XXXX++++XX+.+@%$.XXX.XXX.+.....+.....XX...+..XX......XXX++++XXX",
"+XXX.XXXX..XX+@%$.X.X.+X..X....+..............XX.....X+..XXXX.XX",
"XXXX.+X.X.XX.+@%%.X...XoX...X..X............+X.........X.X.X+.XX",
"+XX.XXX.X+XXX+@.$.X.XXoXX.....+X.+........X..X.X.....X.X.X.XXX.X",
"o..XX+X.XX++XXO%%.....X++.XXX.XX.X...........X...X.....++X.X+X+.",
"X..XX+X.XXXX.+O.%..XX.XoooXXX+++XX..+.....XX+X........XX.X.X+XX.",
".X++XX.+XX+X.+O.%.XX.XoXX+@XX.+XXX..X....+XXX.......X.+.XXX.XX+X",
".+XX.X...XXX.+O.%.XX.XXXoXX.X..X......X..XX...X........XX...X.X+",
"oXX......XXX.+O.%XX+....OX.+o.+X.X..+....XX....+......XXX.X....X",
"X......X.X+XX+OX%X+X.....XOoXXXX.XXXX.X..XX.X..XXX...+X+.....X..",
"XXX..X..XXXX++O%$X..X+....++++X.........+X..X.....X..+...+.....X",
"X....%XXX++X++o.%X.......XX+XX.oX.X..X........XX...X....+X......",
"+...%%X+XX+XX+O.$X+.....XXXXXXX+X.X+.X+..X..+...X......+.X+.$...",
"X.......XXXXX+o.%....+.+XXX.X.....X.....+.....X........XX.....%.",
"X%.%....+X..X+O.%X.....X...+X.XX..X...........+...X...X.X+..%%..",
"o....%..X+X.XX+%%XX+...XX+XXX...X...X.....X.........X..X+.....%.",
"X.X.....XXX.X+@..XXX...XXXXXX...X.+..+..........X......X.X......",
"X..X....XX...X@%++o+++O++++++Xo+++o+X+X++++++++X+XXoXXXX++XXXX+X",
" OOOOOOOOO@#** #@#@OOOOOOOOOOOOOO@@@#OOOOOOOOOOOOOOOOOOOOOOOOOO ",
"&$$$&$%%$%$%%%$%%$%$%%%%%$%$%%$%%$.+#$%$%%$%$%$%$%$%$%$%$%$$%$$$",
"$&&&&=&&&&&&==$=$%$%$$$$%$%%$%$%$$%O@&$$&&&&$$&&$$$$$$%$%$$%$$$$",
"%.....X...%.X..XX...X..XX.X...XX.XXo@$.........X..X...X........X",
".....+X....X...X..XXXX+...XXX..XXX.OO$......X..XXXX...X.........",
"X....XX..X..X.......+XX....XXXX....O#$......+XXX..X.X.+..X......",
"...XXXX+...XXX...X....X+.oXXX.XXXX.Oo%..........X.....X........X",
"....XX.....XX..X.X....XX...Xo+++XXX+O$....+....+...+..X....%.%.X",
"X...XX.....X+XXX..+X.++X..XXXX.o...O+%...+...X..X.....+........X",
"..%XXX.....X+XXXX..XXX...+XXXXX.XX.OO$.X.....X.XX+...........%..",
"+....X+..XXXXX.X+...X..XXXX.XX.XX..++%.......XXXXXX+.X+.....%...",
"X$.X.....XXXXX.X..X.....XXXXXX.X.X.OO$..X..X.XXXXX...........%%.",
".%...+...XXX+X.X..XX+.XXXX...X...+.O+%.X...XXXXXX.XX.+........%.",
"X%........XXXX......X.XXXX.X.+X..X.OO$....+X.XXXXXX+.XX......%%.",
"X$.........XXX+...XXX...X+XX..X.X+X+O%..........XXXX..XX......%.",
"%......%...XXX......+XXXXXXXX.X.XXXOO$..X......+XXXX.....%......"
};
