/* XPM */
static char *_67eb9b2998d4e68a19cd1f3cbe7c720Aft7lD4mlTBlDFSs[] = {
/* columns rows colors chars-per-pixel */
"36 64 13 1 ",
"  c #060912",
". c #070A13",
"X c #080B14",
"o c #090C15",
"O c #0A0D16",
"+ c #0B0E17",
"@ c #0C0F18",
"# c #0D1019",
"$ c #0E111A",
"% c #0F121B",
"& c #10131C",
"* c #11141D",
"= c #12151E",
/* pixels */
"@###@OOX##&*###@.XO@###@@@OO@@OOOOOO",
"OOO@#OOOO#####@OOO#&*###@OOO@@@O##O#",
"OOO@@@@@OOOO#OOOXOO@###O@@OO@@OO##@O",
"XOOO@@@@.XXOOOOO.OOO@OOO@OOO@@@O##OO",
"O@O@O@O@XOO@@O@O@@@####@@OOO@@@O#OOO",
"@@OOOO@@O@OOO@@#@OO@O@OO@@OO@@OOO@O#",
"OOOOOO###O@OOOO@OXOXO.XO@@OO@@OO@OO@",
"OOXOO##*@@OOXOOO@@O@OO@O@OOO@@@OOOXO",
"OO#@OXOOOOOOO@O@OOOO@@@@OOOOO@O@XOXO",
"OOOOO@OOOOOOOO@OXOOXOOOOOOOOOO@OO@OO",
"#O.X@#OOOOOOO@O@OOOOXOOXOOOOOOO@XOOO",
"@OOOO@OOOOOOOO@O@@@OOOOOOOOOO@@OOOOO",
"O@@OXOO@OOOOO@O@@@@OOOOOOOOOO@O@@###",
".O##O.O@OOOOOO@OOOOOOOXOOOOOOO@OOOOO",
"OOO@OOOOOOOOO@O@OXXOXOOOOOOOO@O@OOXO",
"@O.O@#@XOOOOOO@OOOO@O@@@OOOOOO@O@###",
"OO@@@@OOOXO@O@@O#@OO#@OO@OOOO@OXO@OO",
"O@O@@O@OXOOO@OOO#OOOO@OXOOXO@OOOOOOO",
"O@O@@@OOOXO@O@OOOOXO@OOO@OOOO@OXOOOO",
"OO@@@O@OXOOO@O@OO.XXOOOOOOXO@OOOOO@@",
"O@O@@@OOOXO@O@OOOXX.OOOO@OOOO@OXO@@#",
"OO@@@O@OXOOO@O@OOXOOO@OOOOXO@OOO####",
"OO@@@@OOOXO@O@@OO@OO@OOO@OOOO@OX@@@@",
"O@O@@O@OXOOO@OOO#@@O@@OXOOXO@OOOO@OO",
"OXOOO@O@XXOO@OOO#OO#&#OOOOOOO@O@@OOO",
"XOOOOO@OOOO@@OOO#@O###O@OOOOOO@OOOOO",
"OOOOO@O@OO@OOOOO@OX###O@OOOOO@O@OOXO",
"OOOOOOOOO@O@OOOO@OO##OO#OOOOOO@OOOOO",
"OOOOOOOO@OOOOOOOOOO##OO#OOOOOOO@@O@O",
"O@@OOOOOOOOXOOO#O.O#OOO#OOOOO@@OO@OO",
"@O@OOOOXOOXOOO##.XO##XO#OOOOO@O@OOOO",
"O@OOOOXOO.XXOO#&..O#OOO#OOOOOO@OOOOO",
"@@OO@@OOO@@OO@OOOOOOOOOOXX.OOO@OXOOO",
"@OOO@@@O@OOOOOOOOOOOOOOO#@@@OOOO#O@#",
"@OOO@@@OOOOXOOXXOOOOOOOO#@@O@OOOOOOO",
"@@OO@@OO@OOOOX.OOOOOOOOOXX.OOO@OOXXX",
"@@OO@@OO@@O@OOOOOOOOOOOOXXXOOOO@@#@O",
"@OOO@@@OO@@O@O@OOOOOOOOO#@@O@OOOOOOO",
"@@OO@@OOXOOOO@@#OOOOOOOO#@@OOOOOOOOX",
"@OOO@@@O...OO@O#OOOOOOOOXXXOOO@OOOO@",
"OO@@OOO.#@OOO###OOOOOO@OOXOOOXOX@XXO",
"OOOO@OXOOO@@@@@@X.XOOXOO@OOO@O@OOOX.",
"@@OOOOOOXOO@##OXOOXOOOOOO@OOOOOOOOOO",
"@OOOOOOO.OOOOOOOO@@@@###XOOOOOOOOO@O",
"@@OOXOOOOO.XXXOOO@#O@@##OXOOOOOOXOOO",
"OOOOOOOOOOX..O@@OXOOOOOO@OOOOOOOO.OO",
"O@@OOOOXOOXOOOO@XXXOOOOOO@OOO@O@@OOO",
"OOO#OOOXXOO@#OOXOOOOOO@OXOOOXOXO**##",
"OOOO@@OXOOOOOOOOXOO@OOO@XOO@@OOXOOOO",
"OOOO@@OXOOOOOOOOOO@OOXOOXOO@@@OXOOOO",
"OOOO#@OOOOOOOOOOXOO@OXO@OO@@@OOXOOOO",
"OOOOOOOOOOOOOOOOOO@OOOOOXO@O@OOOOOOO",
"@OXOOOOOOOOOOOOOXOO@OXO@OOO@OOOOOOOO",
"@OOXO@@OOOOOOOOOOO@OOOOOOOOOOOOOOOOO",
"@@OOOO@OOOOOOOOOXOO@OOO@OOOOOOO@OOOO",
"@OXXOOO@OOOOOOOOOO@OOXOO@OOOOO@OOOOO",
"OO#*&@OO@@@@OOOOO.XXXO##O.O##OO##O@O",
"XXO##O.X@@@@@OOXXOXXOOO@X.X@#OXOO@O@",
"OOOO#OOOO@O@#OOOOXOOXOO#OXOOOOOOO@O@",
"#OO#@O@#OO@@@#O@XOXOOO@O@@@@#O@O@O@@",
"#OO@@OO#OOO@@#O@OOOO@OOO@##@O#@#@O@O",
"#OOOOOO@@O@@@OOOOOO#@@OOO@OOOO@O@#O@",
"OOOO@OOO@@@@@OOOO@@@@OOOO@OOX###O@@O",
"#O@##OO#@@@#OOXOOO@#@@OOO##XO&*#@OO#"
};
