/* XPM */
static char *_7e7819797e94297eb0f9b8fc19996c51YpTojTYM8WsyK4c[] = {
/* columns rows colors chars-per-pixel */
"64 64 256 2 ",
"   c #020204",
".  c #050509",
"X  c #0B0A0C",
"o  c #070909",
"O  c #14090B",
"+  c #06160C",
"@  c #0E0D12",
"#  c #080B11",
"$  c #120D13",
"%  c #1A0E15",
"&  c #091814",
"*  c #131215",
"=  c #15131A",
"-  c #1A151C",
";  c #191819",
":  c #1E110E",
">  c #281818",
",  c #2D1313",
"<  c #042919",
"1  c #04341C",
"2  c #0C2213",
"3  c #2E221D",
"4  c #1A1A21",
"5  c #0F1E21",
"6  c #2A1B23",
"7  c #072C22",
"8  c #172626",
"9  c #073926",
"0  c #153728",
"q  c #183035",
"w  c #392626",
"e  c #302E34",
"r  c #573937",
"t  c #492E2E",
"y  c #693A35",
"u  c #481F1B",
"i  c #024B2C",
"p  c #074629",
"a  c #14442D",
"s  c #04552D",
"d  c #084934",
"f  c #174937",
"g  c #075738",
"h  c #16553A",
"j  c #224C3B",
"k  c #05643A",
"l  c #13673B",
"z  c #00451E",
"x  c #56443E",
"c  c #6A443B",
"v  c #333746",
"b  c #183B43",
"n  c #4A3B47",
"m  c #653C42",
"M  c #055B42",
"N  c #195B44",
"B  c #184C4A",
"V  c #235747",
"C  c #295151",
"Z  c #096847",
"A  c #15674A",
"S  c #13744D",
"D  c #196A54",
"F  c #097855",
"G  c #197757",
"H  c #06744A",
"J  c #25654B",
"K  c #266B55",
"L  c #257659",
"P  c #336C5B",
"I  c #2F5160",
"U  c #157968",
"Y  c #287B64",
"T  c #347866",
"R  c #357069",
"E  c #514750",
"W  c #684545",
"Q  c #785857",
"!  c #744F4E",
"~  c #595968",
"^  c #53586B",
"/  c #6B596D",
"(  c #536A72",
")  c #6B6779",
"_  c #776779",
"`  c #706A71",
"'  c #656B59",
"]  c #875A57",
"[  c #965A54",
"{  c #8A4E4D",
"}  c #8A625C",
"|  c #9A675B",
" . c #A7695C",
".. c #8F5D65",
"X. c #966866",
"o. c #8C6E6D",
"O. c #A76B66",
"+. c #AB746B",
"@. c #AA7568",
"#. c #B5786D",
"$. c #A97874",
"%. c #B77B75",
"&. c #B3696B",
"*. c #A9595A",
"=. c #C47A77",
"-. c #CA7575",
";. c #07885A",
":. c #16875C",
">. c #0D8F56",
",. c #0A8A62",
"<. c #178765",
"1. c #089567",
"2. c #14956A",
"3. c #199A75",
"4. c #0E9570",
"5. c #298569",
"6. c #34846B",
"7. c #398974",
"8. c #279676",
"9. c #379679",
"0. c #28916D",
"q. c #0CA877",
"w. c #17A679",
"e. c #0EAC73",
"r. c #26A67C",
"t. c #26B778",
"y. c #2DA775",
"u. c #1A9D5D",
"i. c #458A79",
"p. c #45937D",
"a. c #4D856E",
"s. c #638770",
"d. c #29C57C",
"f. c #BC837A",
"g. c #BA8477",
"h. c #AB8376",
"j. c #C5847B",
"k. c #D2817C",
"l. c #766C83",
"z. c #7A7386",
"x. c #6E728A",
"c. c #577C85",
"v. c #867B93",
"b. c #877790",
"n. c #AC7D82",
"m. c #CC7C84",
"M. c #3A9A82",
"N. c #2D9C83",
"B. c #18B987",
"V. c #13B186",
"C. c #27AA84",
"Z. c #37A888",
"A. c #27B889",
"S. c #39BA96",
"D. c #35B58E",
"F. c #1C9F80",
"G. c #4A9A84",
"H. c #569989",
"J. c #54898A",
"K. c #6D9591",
"L. c #48A48A",
"P. c #55A38C",
"I. c #58A893",
"U. c #47B897",
"Y. c #51B296",
"T. c #67A799",
"R. c #70A89D",
"E. c #68B9A6",
"W. c #74B3B2",
"Q. c #67ACA5",
"!. c #19C68B",
"~. c #1AC997",
"^. c #15D096",
"/. c #29C698",
"(. c #3BC59B",
"). c #2ED095",
"_. c #34D4A6",
"`. c #36E8B5",
"'. c #32E8AC",
"]. c #27E4A2",
"[. c #46CA9A",
"{. c #57C7A8",
"}. c #47D7AB",
"|. c #51D2AC",
" X c #65D8B6",
".X c #6ECBB4",
"XX c #47E7B9",
"oX c #59E7B7",
"OX c #50F1AF",
"+X c #68E8BC",
"@X c #67F9B6",
"#X c #72B1C8",
"$X c #73D3C9",
"%X c #5BF6C7",
"&X c #6CE7C4",
"*X c #76E8C6",
"=X c #79F5C9",
"-X c #72F8CF",
";X c #6BEBE4",
":X c #8B849A",
">X c #93889C",
",X c #8E8A8E",
"<X c #B88687",
"1X c #AA928F",
"2X c #B0A497",
"3X c #978CA5",
"4X c #9D94AC",
"5X c #9A94A8",
"6X c #989AB2",
"7X c #8B90A6",
"8X c #A497AD",
"9X c #A59BB3",
"0X c #A89BB5",
"qX c #B096A9",
"wX c #91A8B6",
"eX c #AAA2B7",
"rX c #B3AAB7",
"tX c #C78985",
"yX c #D68B87",
"uX c #CA9387",
"iX c #D3948B",
"pX c #D8968B",
"aX c #CA9594",
"sX c #D99A95",
"dX c #CF8C91",
"fX c #E49A97",
"gX c #E88E91",
"hX c #DCA397",
"jX c #E3A295",
"kX c #E7A59B",
"lX c #ECA699",
"zX c #DCA7A6",
"xX c #CDAFB1",
"cX c #E9A9A7",
"vX c #F4AAA9",
"bX c #EAB2A9",
"nX c #F3B4AB",
"mX c #F8B7B7",
"MX c #EEAEB3",
"NX c #E999A3",
"BX c #F7C1BB",
"VX c #97B4CD",
"CX c #B3AFC4",
"ZX c #F7BCC2",
"AX c #C5BFC1",
"SX c #8ACED3",
"DX c #B1CBCC",
"FX c #87FAD6",
"GX c #84EFCD",
"HX c #89D5EB",
"JX c #8BE8F2",
"KX c #A0CEE5",
"LX c #FDC5C7",
"PX c #FED4D1",
"IX c #D9D2D5",
"UX c #91C1A7",
/* pixels */
"5.K 8.}.}.(.9.( 7.6.S.|.$X}.N.G.&X&XC.+X&XZ.5.L S.&X3.D L L <._.XX3.U K L <.8.2.D A K 9.).`.5.J A J J N f a h h g a h a a p a 0 ",
"D.5.T 0.9.G.9.9.i.G.&XU.Y.&X{.H.*X&XM.{.-XU.5.6.C.XXD.<.L Y 8.]./.w.F S :.2.(./.K L G G 8._.C.J K V J N f f h h f k s s l z z a ",
"t.Y T 6.9.p.p.L.p.P.&XE.J.*X XG.&X=XY.U.-X{.6.0.Z.%XXXA.;.Z D <.8.8.L G 5.8./._.5.A A K L (./.J J C K J j f l h h s h u.t.l z a ",
"r.6.T 9.9.p.G.I.H.H.&X XH.{.&XI.Y.FX|.U.-X{.7.0.C.N.D 0 4 - = + < 7 B f C U 3.`.3.L L L J U.XX<.P K K K f j J j h f u.OXOXu.p p ",
"}.7.T i.p.p.p.T.P.T.$X*XI.E.*XQ.H. X-X&XoXD.( j 4 4 5 * = $ ; $ % @ 8 8 b C M N.Z.U K L K Z.oXS.6.P K K B V L N h l d.@X@Xd.s a ",
"oXy.6.p.Y.Y.p.I.Q.K.E.*X.X.X&XQ.H.I.{.|.}.0.<   % X & & ; * @ o % & # ; 8 q q I D U Y P 5.S.(.A.5.P P P h A L L l k u.d.@X[.l z ",
"@X[.6.9.p.L.P.T.E.K.R..XSX.X.XI.I.K.L.|.7.&   % O O . o ; ; * * X ; & 8 = = q B b K Y Y Y 3.B.S.y.T P Y K N K :.J s s l OX@X>.z ",
"=X|.9.a.L.Y.I.R.T.Q.R.T.E..X{.T.P.H.{.6.O % + o + X O o $ * o : : X * ; = 4 5 8 b B N K P Z.(.U.XXG.L Y L j J G L l a l [.@Xu.s ",
"+XOX[.p.p.I.H.Y.{.T.7XT.E.GXFXT.H.P.( & % * + X o O X o O $ $ $ ; @ @ o : $ ; & ; 8 b B T _.S.P }.}.L T L l J J :.l a l ).@XOXt.",
"=X=XoXL.p.H.{.GX+XGXE.I..XGXFX XP.i.2   * : o : o + o   X ; ; X : > 3 > w 3 3 > ; q q 0 N }._.P Z.XX9.K J S L l L j s >.OXOXd.u.",
"oX+X}.U.p.Y.*X*XGXFX.XY.E.E.GX XI.P O + @ : o O : > > > : : > w ! ] [ ] } ] ! c w ; 8 4 V /.XX5.6.`.r.K V P L J S j s k :.>.l z ",
"|.@X@X XY.Y.FX+XE.GXFXE.P.I.SX=XY.f O @ o : 3 u u x ! ] ] ] | $.yXsXpXiXj.g.| @.` E q q B N.XXD.5.XXr.J a N G S l s j p 0 p a z ",
"@XOX+XFX{.U.GX*XL.*XFX{.I.H..X-X|.B @ X * w ! } #.tXiXsXsXjXfXjXlXvXlXlXjXiXj.<X2Xo.I U D Y (._.A.[.5.K h f 5.w.A.u.f a a s p z ",
"GX}.(.=X+X[.+XFX{. XFX.XP.H.{.-X-XG.= ; w { $.j.iXhXhXhXkXlXvXkXjXlXpXjXjXpXj.uXDXqX( U R D <.Z.!.A.F V f h r.w.w.^.F p s 0 0 a ",
"GX+Xt.+XGX[. XFX X{.FX XG.I..X&X|.G.= > c O.f.uXiXhXkXcXlXjXjXjXlXjXjXjXlXhXhXiXDXrX` K U U N G ).OXt.N 0 D ^.2.f /.B.h a a p 1 ",
"@X+Xt.oXGX[.D.+XGX+X-XU.M.L.L.U.|.T & t { %.j.uXsXjXlXkXfXkXlXvXlXpXjXjXlXlXhXuXAXAXz.I U K J D.@XFX(.S 0 h ].C.f u.).g p p p 0 ",
"}.@X}.}.=XU.9.Y. X|.(.G.G.M.Z.{.&XU , r ] %.j.iXzXbXbXbXcXbXfXlXvXfXNXcXcXbXkXyXaXIX>X( T F A y.).@XOXH 0 s D./.h F ].Z 9 a 9 9 ",
"y.+X%X@XoXZ.0.y.C.(.[.N.M.G.Z.U.XX7.w r X.%.tXfXcXhXmXbXcXbXmXvXnXbXmXmXmXmXvXNXaXCXrXx.T C.S A >.+X@Xu.a a 2.].F F B.A 0 9 9 9 ",
"5.9.D./.w.5.T 5.N.U.{.N.T 6.0.5.S.5.t ! | @.aXcXcXmXLXmXZXZXZXmXnXBXzXzX<X,XX.X.1XDXCXR.P.V.N g g t.`.8.1 1 g 3.w.:.F 9 1 < 9 < ",
"J Z G 8.8.R T P R T Z.F.R ( T P N.Y t { O.j.<Xo._ o.Q ..n.cXMXZXZXzXn.! t t E ~ r K.KX6XK.Z.A f f :.OXt.k p f h S Z d 9 9 9 < 0 ",
"Y U M.(.|.M.7.J.J.i.Y.{.J.s.H.J.L.9.W } +.| r m ! E E W ] h.zXkXMXaX<Xn.<XaXMXcXaX_ R.DXQ.S.<.B J A.%X@XB.h h f g 2.<.f p 0 9 9 ",
"8.5.Y C.|.Z.8.7.i.M.U.|.M.i.i.T Z.9.r X.X.y ! 1XsXpXjXsXuXuXbXnXbXhXtXsXfXjXlXlXsXm.1XKXW.V.Y B A !.(.A.F f f d D B.B.f 9 1 9 9 ",
"D.U Y 5.(.[.0.T 6.7.N.{.D.M.p.7.M.Z.t X.} | sXdXyXyXj.=.*.&.k.vXlXgX .[  .}  .#.k.hXuXDX$X3.g f j Z :.2.F S g s M ,.^.Z 9 7 9 9 ",
"_.Y Y Y C.(.0.5.6.T M.U.(.N.6.6.5.0.E } O.dX=.[ W x y o.y [ g.pXfXyX&.y n.m W W c g.aXxXwXR s.g f H q.N A e.G 0 a f q.<.9 1 < q ",
"%XF.L L 8._.D.5.T 5.8.9.M.Y Y L P ( l | <XtX[ y ] X.O.%.{ -.=.k.k.gXk.&.#.yXsXjXtX=.uXxXwXj.2Xq.p F w.B 9 q.4.d i 8 1.w.p 7 < 7 ",
"`.3.G U r.(.A.0.Y G Y 3.C.0.Y 5.} n.g. .-.=.f.yXfXfXtX%.j.-.k.yXjXk.k.pX-.yXNXlXvXhXhXxXrXgXUX'.h A w.M < >.w.h 9 7 F B.H a < 1 ",
"_.0.G G 5.3.2.G G L Y 8.A.8.D S o.yXyX@.f.sXsXjXgXgX-.pXuX=.-.yXk.=.pXpXfXpXfXvXcXcXzXxXxXsXE.`.5.k q.G ; A e.s 7 a :.B.,.f < 1 ",
"V.G K S D Y <.G G G L <.F.C.L G P iXgX .h.tXfXNXgXgXpXtX=.#.yXNXlXfX=.fXfXgXgXvXMXnXhXaX2XhXH.'.r.p ;.;.a A 2.d 9 9 d ;.;.9 2 9 ",
").>.H H G :.0.<.D G K A ,.C.:.J J j.yX*.%.dXcXcXbXbXj.&.=.pXMXmXmXmXfXyXgXpXvXmXMXMXhXzX2XgX6._.r.1 g 1.M B M 7 7 < H ).}.H 2 < ",
"OXt.H S G D <.G A G L A :.r.<.A l s.gX+.#.aXaXmXLXvXk.*.&.[ dXNXNXdX[ =.yXyXbXLXLXvXzX2X<XgXL.^.<.9 7 p 9 F H 7 0 9 >.'.%X1.+ < ",
"oX).S A A A L <.S D A Z D 8.w.5.A L %.=.O.tXyXMXLXcXk.pXm...O.%.m.<Xj.tXfXNXmXLXBXcXlX2XiX1XC.V.p 0 0 9 M B.^.9 2 9 g >.'.!.z < ",
"OX'.>.l S S A ;.F J Z F G 0.4.F A g ` j.O.%.iXfXcXvXpXj.} m t n.<Xy ! dXmXvXmXZXnXMXgX1XMXP.F V.q.s < d D F._.Z < 1 8 1 ).}.i + ",
").OXe.l D Z H ,.<.A A A Z G ,.<.H h J tX#.f.uXpXNXzX..t m { n.m.gX<XQ ] ..<XmXvXkXjXpXaXMXP.V.4.^.B.9 q < d '.U 7 7 < & e.OX;.2 ",
"d.oX).>.Z A A D F Z Z A Z 2.2.F.w.g G 1Xo.j.j.k.m.&.y t ..&.m.m.-.gXm.&.! t ] cXjXjXfX,XE 0.~.9 4.].Z 8 & 9 ^.V.& 7 < < 2.@X).;.",
"!.@XOX^.S M A ,.3.F.,.g F r.F D B.G Z '.U.X.uXiXn.| u u m.m.MXxXcXzXsXzX%., y uXfXfXdX9.1 <.'.M g _.4.< < & 4.^.M 7 & d e.^.t.k ",
"!./.!.1.g g U V.4.A.B.Z A V.F g 3.w.g ).XX' <XuXtX+.n.{ m.MXLXPXPXPXxXfX=.*.j.uXhXtX2X].s g `.F 7 B.V.7 < 7 4.`.q.d & < g ,.4.F ",
"l ;.1.Z g h <.!.H U ~.,.g C.4.s ;.e.g G `.[.%.j.uXsXkX%.*.m.-.NXvXgX-.-.&.sXkXgX<XsX,X^.F 9 _.B.d V.w.< & 9 F 4.F 7 & & Z q.;.B.",
"g :.w.D g s F ].<.M ^.q.g <.8.M U e.g g 4.B.` -.tXdXyXyX%.m.m.m.m.m.gXyXyXjXsXfXsXtXJ V.4.& F ^.w.1.k + 5 & M F 1.1.7 & 4.q.< ;.",
"h Z ;.;.g i Z A.3.i r.B.g Z 4.2.;.:.a i d F ' &.g.tXtXtXtX+.n.O.m.m.#.uXkXpXiXj.tXo.Y V.F = 7 g 1.e.>.s 2 < ;.1.Z ~.F + 2.!.< d ",
"s d F ;.g f M q.^.Z 2.q.M i k G S g s i a 1.a.[ O.$.#.uXgXyX%.X.{ &.iXjXhXhXuXg...o.W.E.D < & g ^.].].t.1 < q.4.& ;.B.7 M ^.i & ",
"s i A :.k i i A B.V.3.Z i s 9 g M D Z p d ^.s.| Q c o.aXiXfXNXaXdXdXzXzXhXdX%.] | ,X_ >X6Xc.9 ,.'.e.d.'.H < 4.V.& k !.g < A.2.< ",
"g i i :.;.g s a M H F M 0 d d Z k M F g a F.'  .X.u c o.<XtXn.n.n.n.<Xn.<XX.r Q g.h.( z.b.4XwX|.OX>.l OXt.< F ^.p 7 !.g o H e.1.",
"p i k H S M i i i M B.1.9 d d F k p H H 9 ( ` &.g.! , W o...! ..Q m ! Q o.w t h.g.h.3 E v.v.v.wXJX XN._.d.1 9 V.;.i w.g o < d M ",
"g i d Z ,.Z p i i :.!.V.d 9 d A g 1 M G ^ l.! [ #.h.x > e t e w 6 t w v ; > X.f. .#.3 $ ~ v.b.b.7XKXJX;X&XY 7 M 1.1.H < + o # < ",
"p 9 i 1.'.3.d 9 i g F !.g 1 i i Z B ^ ) _ E - O.g.#.$.W , , : + % $ + X 3 ! g.=.g.@.w o 3 ` >X,X,X:XwXSXJXJX#XJ.F e.d.u.p o 1 1 ",
"g 9 k 4.`./.g 9 9 1 N V.1.1 < C c.c.^ ) ) ; ,  .#.#.+.%.W 3 : o O X : t O.%.j.g.#.$.w   . e _ >X7Xv.>Xz.6XSXJXHXJXOX].'.t.2 1 1 ",
"4.i p p 4.].H 1 9 9 d w.,.9 v ^ / ( ) ) t o W  .+.+.f.+.$.| ! c r W } #.+.f.uX#.#. .3 & . . E v.7Xz.:X3X3X3XUXSXHXJXD.).@Xs 2 s ",
"^.Z 1 < D '.1.7 1 1 2 q v I c.l.) ^ v.E O X W | +.g.@.g.#.+.tXtXtXiXyX#.j.#.%.=.@. ., O %   & ) 5X6X7X3X3X4X7X6X#XHXJX).OXu.+ d ",
"~.F 9 1 d '.V.7 5 q I E ) / l.l.~ ) _ 6 X o ! | O.#.h.#.@.@.g.uXiXiX=.#.+.g.#.#.@.} = @ =   . 4 z.6XCX7X3X6X6XwX4X6X;XHX%Xt.2 7 ",
"V.1.7 7 9 C B e e ^ ) ) l.z.l.) ) ,X` $ @ o x | O.@.h.#.@.@.O.+.f.g. . .#.#.#.#.#.W O @ - X   . v 5X6XwX4X3X6XeXwXVXSXKXJX[.+ o ",
"q.1.< 2 q n v v ^ ) ) x.v.v.l.^ b.>Xv   @ X t O.O.+.#.g.g.@.| |  .[ | | @.@.#.#.@.t X = = % .   o ) 6X6X8X4X5XeXwXeXVXVXHXHXB   ",
",.Z & P ^ v c.x./ l.x.z.7Xz.l.l.>Xb.- X * @ w O.@.+.+.h.j.g.@.@.| [ | #.@.#.#.f.! : @ - * * $ .   e 8X4X5X8X8X8X0X4XeXwXVXHX#X9 ",
"g 7 e K.b ^ x.l.z.v.v.v.v.v.l.z.8XE   * = X > X.g.h.$.$.uXf.g.g.#.@. .g.g.#.j.h.3 X = 4 - % = . X X _ eX0X8X0X8XqX0X0X3X0XVX;XVX",
";.C v x.I l.x.v.v.4Xv.v.0Xv.l.4Xv.# @ * - @ > W uXuXf.#.j.uXg.g.#.g.@.j.j.g.hX! O $ - = = - = . . . w 5XCX8XeX0X0X9XCX0XqX6XHX#X",
"1.^ E 7X/ / 3Xv.v.4Xv.eX0Xz.v.eXn . * $ - * $ e tXhXsXj.uXsXuXj.g.g.j.pXk.hX<X3 = * = * = - = $ o O . E 0X9X0XqX0X8XeX0X8X4X^ I ",
"B / x.6Xl.l.v.3X4X4X4X0X4Xl.6Xv.  ; @ X = = = 6 <XbXbXaXiXhXsXuXhXhXjXpXpXcXx O 4 $ ; * - 4 $ = o X $ $ b.9X8X0X0XqX0X0X0Xl.e z.",
"# l.v.9X9X/ 3X6X:X0X0X0X3Xv.0Xe @ * @ @ = = = = X.MXvXbXhXbXkXcXbXhXsXjXbX! % 4 4 - $ = = = = $ o $ = . e 6XrX9XeX0X0X0X>Xv b.eX",
"  ~ 6X6X4Xv.l.3X3X9X0X0X3X6Xn . @ = # $ * = = $ } LXcXbXbXbXBXvXbXnXbXhX} : - = 4 - = = - - = = * X o 4   6 3XeX0XCX0XqX_ b.0X4X",
"o v eX5X4X4Xl.v.eX0X0X9X4X~ # @ = @ @ @ - = $ $ r xXBXzXnXnXvXBXBXnXbXQ O * 4 4 - = = - - - = =   o 4 X $ = 4 l.CX0XeXl.z.9X0XCX",
"  - :X0X4X0Xv.l.4X0XCX8X^ # . 4 = @ X @ - - @ = O ! MXLXnXmXbXnXBXbXE * > - 4 - - = = = - 4 = $ X X @ @ = X @ @ / CX3Xb.8X4X9X/ ",
"X @ ` rX9X0X0Xl.>XrXqXC # . $ * = # @ $ 4 = @ 4 ; . r <XZXLXPXLXxXt % 4 4 - 4 $ - = = = - - = $ X o @ * = # = X # n / 4X0X6XE . ",
"o   v 9X4X3X6X9Xb.v.e X . % - = $ # $ $ = - @ - & = $ - t ! / / e $ 6 % 4 $ 4 - = = = = = = = $     * * $ @ * * $ # 8 z.9XE . X ",
"O   ; >XeX9XCX0XE . @ o @ * @ * $ # $ $ = 4 @ - 4 # 4 = $ $ X o + ; 4 % 4 - - % = - = = $ = = * X o * X @ 4 X = @ 4 X X E X   # ",
"@ o   ~ 0X4X4XE . - ; ; o @ = = $ # * $ % 4 @ 4 % $ @ = = 4 - - 6 * = $ % - $ 4 = - 4 = $ = = =   o X * = = @ $ $ X * @ . = @ . "
};
