/* XPM */
static char *result[] = {
/* columns rows colors chars-per-pixel */
"64 64 44 1 ",
"  c #402615",
". c #785E3E",
"X c #705639",
"o c #6A4F34",
"O c #584027",
"+ c #63482C",
"@ c #52371F",
"# c #4B3019",
"$ c #462A18",
"% c #826C4D",
"& c #957959",
"* c #B29775",
"= c #A38869",
"- c #D6B874",
"; c #C9A963",
": c #FFEDB8",
"> c #E4C786",
", c #AE8C3F",
"< c #FFE4AA",
"1 c #F1D599",
"2 c #BB9A51",
"3 c #845C1A",
"4 c #A07D2D",
"5 c #967526",
"6 c #8A651B",
"7 c #693910",
"8 c #7E5317",
"9 c #734012",
"0 c #572D0C",
"q c #4E260A",
"w c #441F09",
"e c #3A200F",
"r c #361C0E",
"t c #280D03",
"y c #3A1A08",
"u c #8F6F1E",
"i c #2D1206",
"p c #200B02",
"a c #60330F",
"s c #794A15",
"d c #010101",
"f c #31160A",
"g c #321305",
"h c #C3A388",
/* pixels */
" .XoOOOOOO++oo+XO+o+O+OO++O@##++OOOOo+OO+$+ OXO+XoOOXo.o#Xoo+Xo ",
"$%X#oX%%Oo%X%.OoOX.$X.XoOOX%X+OOoXoo.X+XOXXXOXOX..Oo%%.X&X%o%%%+",
"o%&O.ooo%X..XX.+XOoOOX%.OO+.O.Xo.XO.oooX#oXXoOo.%O%....%.X.%oo.o",
"O*XO%.%%.X....XX.XoO+.X+ooo.%X.o#%.O%%o..X.O+O.%oOOo.X.%.X%+o.X+",
"O%o%.X..XXXX...o.%.XoXX+%XOo.XooXX.%..XXo.OXoo%.Oo.X%X..%oX.X#X+",
"+%%X%oo..%.%..XoX+Oooooo...OX&.X%.o..XXo.%.oooo.oX%.%XoXX%%oXoXo",
"+%&.o..XX....%X..XOoo.XXX%Xo..XoXX+.%.oX..X%%oooXX..%XO#.%XXXoX+",
"O&%X$oX......X.o%%%.+%%.X+X.%o..X+X.oo+..XXo.+%o%%...%%oX%.XXoXo",
"$%%OOoX.X%..XXXX.X....XX%$X..X.X+o..XOX%XoX..%+XXooOoX..%X%X%XX+",
"$%%oXXX...XXX..X.XXX.X.X%%XX..X.Xo.oXo.@oXXX%.o%OOXX%X%+ooXoXX.+",
"+*Xo..Oo..XXXX.XX......XX%.XX.XX.X..XX%o.X%X%o..&%.Oo%ooo%X%XXo+",
"OX%oXXOooXXooX...X..XX%X.XO=----;;;;=%oo%...+%%%%%.%%.oX.o%%%oO+",
"$%=%XXX%.XX%ooXX...X.X+XXXo-:::::>--,OOXX%..Ooo%..X..%.%.o.%o.oo",
"O&*.%o%.%%..%.oX+oX%Xo...Xo&<11<>-22&%o%o..o.oo...oXooXX%.oX%Xoo",
"O%&o#ooo%....o.X%%o.%o%Xo+o%34345466%o+o%Oooooo.X.%.%X%o%.XXoo%+",
"OO&%X.+..%..%Ooo..%o+.X..++X7O8O8933X@@+O%%XoO%.oX.%$%%o%.&&.+.+",
"O*X+oo%X..XXo%%X%X+%OX%o.O@70qqqw 007#@+..X.XXo+X.%%oX%.X%..O%X+",
"#X&..OOXXXX...X.o..%%%X+O#e0rwwwwq##te#OX%%.%%XXoO.%oX.o..&O%..+",
"#=&&&X.++%Xo+%..o.+O%.o@$eetqeweyee0te #Ooo..XXX%%%o%%Xo%XX%X%.o",
"@%XXoOoOOo++o.$o.Ooo+.77@eetq,22,,,0teee@@O..O..oXOoX.Xoo.XO.XX+",
" @O+$OO$O#O#O @  #OO7%3uu33t#>::;;;0i783eO+OOOOOOOOO+OO$OOO$O@  ",
"%%%.%%XXX%%%%.@%X...2;2,443 e2-2444rp5455u+%X%=%%&&&#&%%%&X%&%%%",
"%&=%&%&%%%&&.#O=%%2;2,4444533a70a7783544,226=o&===&%%=%*%%&&&&=&",
"XXooXXoXX%oX%+X%o4-3eps544,,,w ywqqu544544228...%.oXoX%o.XoXX...",
"X%OooXoXoo.oo+O&&23ddra3u422,,u33u4,;24u9ra,,.XoooXXo%+X.XXXXoXX",
".%.ooOo%XoXo.+o%23pdpeas642;;>--1;;2;453Odra54o+oX.oXo.%.OXXXooX",
".+XoO%X..XX+oO+%3rddf@786u4,2>1>-;;224687rdra5+O+XXXXo.r%%ooXXXX",
"oXoO%X.XoXXXoOr4sddpras6833654,2,44456890edd$3u$@oX%XXX.XXoXXX.X",
"$%.%X+.oo%%oOO@srdpp 7s89999s8655688ssssw ppd38$@Oooo.X.%.ooXXoX",
"+XXo%XooX.%X%o6sfiif#a0w eer$aa949rq0079Oarpgr33$#O+.%Xo.$+#X.XX",
"+o.XXXXX.XXX.ouqffeew eidddptr  Oyfiddt09a iieO37#@OXOX%OXoOoXoX",
"XoXX.XXo.%oX.3atr  $$ippgppddtr 8 tddtdt#+qeffr38$#O+.XoX.%Xo%+X",
"oX.#.oo.X%OX.60g  $e$fy$+# pdd $48tf @$ r#a$rfe#3$$@Oo.o%XooOX.X",
"+XX.oXX%+O..990qq00r  a4>2XrpdrO5X$ #,-,7$77$erp83$#O+OoooXoOo.X",
"o.Xooo.oOoO+8w0aa0qr #33437fii +53O  8>25#370qyw$3$$@+.XoX%oo.X.",
".%&XXOo...X37w077aqrarrrp dreerO55oddrrr888770www73$@O+X%%XoXXX.",
".#XX.oX..o+8#07779a $ pra@0w#Og3;28#rrr r307a70qqru$@OoOooOXXXoX",
"%oX..%%.Xo87q0a777w @s,,5397@ r21255876,,47q777aqw79@@ +.%%oX.Xo",
"+...oOO...8w077777 y7u,u363O7wqs553543642uaeqa7a00#89@O#..#...oX",
"X.%%.%XX.670aaa7q9eras386u470q$dddOu546346arq0a7a0q93OO+oXX..XX.",
"XXX.%.XX3300a000wwirq79s6537qedppdd@3,4u39qiwy0aaa008+O++OO.%%XX",
"oX.%X%XX3700700qw rrr 98u,8awpipppdd+52480eyywy0000093+++.%...%.",
"+..X%%X+8000000qyyipi$#6,537wtpt wrr75;280pif ywqq0q088+oXo.&...",
".XOO+%.67q7007qwyggppr$s,u37qye34@aas3,23qpdpgywq000q73Xoo..XX%.",
"X%%&.XX7 0qqq0qwygiprr s36s7q t  r#as3558fpiiyyyq000qa8+oo..%%%.",
"#OXo%%.9a0000a#00wgry w7uu7#rdddddd$78837pfe#0ewqq0a0073ooX...%.",
"oXX.X.s,,,2445uu33888yras8addf8,28rd$838 p79346556u545u3@oXX....",
"$%%..X 9;-;;2,2245397 f#090 r0@Oo 0#0647w939999s8888393a#oooXXoX",
" OOOOO #t777a 00000  err#9897rddddp854s@00a0weewgggwww00 OOOOOO ",
"h%&=%&%arqyrrrrrrd rr $ w@s87rdrwrfs89awggipfppfdrdfww00O%&&%&&&",
"&=*&%=XX0t55u4,,444u433 q#a0a3#797uurqqw3333355554u5pw0r+&&%&&=&",
"%%%XoooO0tt52;;;22,,,333qwqqO45u4447drr83997u5u45u43#00eO+o....X",
".%+.o$+Oe0tt@a777#aa7937ryw 0u44uu3+$rwewegew 0q0000 0$#O+X...%.",
"%OoXX..+@e0trr r  w     pyyp9,4,,,,5O  drrpprrppppp00e #+o...%..",
"oX%%.#XXO#0tf84,222222,377rr3->1>-2,8O3883444444,,pw0e$@+X.....X",
"OX%XOo..o@e0tr52222,,45333Ow3<:::1>288978344444,,5 0e #Oo..%.%%X",
"%.o%@$X.oO#e0t  $   #$ #q  pO,2;22247  r  $0O0000Ow0 $O+.......X",
".@$XX%..X+@#e0t $$OO O@aer$wr8u353uu+ddpigggi rpppqe$@+o.....%..",
"oX%%XO$%.o @ e0t4,22;4,53877p+838877#3933u44,,,up00 #+o.....%...",
"X&%.%.o..oOX@ e0t,2;2493677ara9s9987w7793444,45tw0e @+...%%.%%X.",
"%%..%OXX .Xo # e0t$dddfdpyqdiaa77777d e @@@0qyt 0e#@+#%..#..X.%.",
"X%%.o%XXXX% +@# e0 #O rr$r$ppOaaaO7awq  iggpppf0e #+oo#....XoX%.",
"o&%OoXXXXOXXoO #$e0f34,53337f0aaaa0a$535444ssp0e$#@+X.X.XX.oX%%.",
"&o+o%..&XO..o O@#$e0ts,47u3#wa00000ar3u54,s#g0e$$@O+....o%.X...."
};
