/* XPM */
static char *_45b2772bc6f4ec3b1b88eef1566599d0lZNADAIcVBwFhk1[] = {
/* columns rows colors chars-per-pixel */
"64 64 256 2 ",
"   c black",
".  c #010101",
"X  c #020202",
"o  c gray1",
"O  c #040404",
"+  c gray2",
"@  c #060606",
"#  c #070707",
"$  c gray3",
"%  c #090909",
"&  c gray4",
"*  c #0B0B0B",
"=  c #0C0C0C",
"-  c gray5",
";  c #0E0E0E",
":  c gray6",
">  c #101010",
",  c #111111",
"<  c gray7",
"1  c #131313",
"2  c gray8",
"3  c #151515",
"4  c #161616",
"5  c gray9",
"6  c #181818",
"7  c #191919",
"8  c gray10",
"9  c #1B1B1B",
"0  c gray11",
"q  c #1D1D1D",
"w  c #1E1E1E",
"e  c gray12",
"r  c #202020",
"t  c gray13",
"y  c #222222",
"u  c #232323",
"i  c gray14",
"p  c #252525",
"a  c gray15",
"s  c #272727",
"d  c #282828",
"f  c gray16",
"g  c #2A2A2A",
"h  c gray17",
"j  c #2C2C2C",
"k  c #2D2D2D",
"l  c gray18",
"z  c #2F2F2F",
"x  c gray19",
"c  c #313131",
"v  c #323232",
"b  c gray20",
"n  c #343434",
"m  c #353535",
"M  c gray21",
"N  c #373737",
"B  c gray22",
"V  c #393939",
"C  c #3A3A3A",
"Z  c gray23",
"A  c #3C3C3C",
"S  c gray24",
"D  c #3E3E3E",
"F  c #3F3F3F",
"G  c gray25",
"H  c #414141",
"J  c gray26",
"K  c #434343",
"L  c #444444",
"P  c gray27",
"I  c #464646",
"U  c gray28",
"Y  c #484848",
"T  c #494949",
"R  c gray29",
"E  c #4B4B4B",
"W  c #4C4C4C",
"Q  c gray30",
"!  c #4E4E4E",
"~  c gray31",
"^  c #505050",
"/  c #515151",
"(  c gray32",
")  c #535353",
"_  c gray33",
"`  c #555555",
"'  c #565656",
"]  c gray34",
"[  c #585858",
"{  c gray35",
"}  c #5A5A5A",
"|  c #5B5B5B",
" . c gray36",
".. c #5D5D5D",
"X. c gray37",
"o. c #5F5F5F",
"O. c #606060",
"+. c gray38",
"@. c #626262",
"#. c gray39",
"$. c #646464",
"%. c #656565",
"&. c gray40",
"*. c #676767",
"=. c #686868",
"-. c DimGray",
";. c #6A6A6A",
":. c gray42",
">. c #6C6C6C",
",. c #6D6D6D",
"<. c gray43",
"1. c #6F6F6F",
"2. c gray44",
"3. c #717171",
"4. c #727272",
"5. c gray45",
"6. c #747474",
"7. c gray46",
"8. c #767676",
"9. c #777777",
"0. c gray47",
"q. c #797979",
"w. c gray48",
"e. c #7B7B7B",
"r. c #7C7C7C",
"t. c gray49",
"y. c #7E7E7E",
"u. c gray50",
"i. c #808080",
"p. c #818181",
"a. c gray51",
"s. c #838383",
"d. c #848484",
"f. c gray52",
"g. c #868686",
"h. c gray53",
"j. c #888888",
"k. c #898989",
"l. c gray54",
"z. c #8B8B8B",
"x. c gray55",
"c. c #8D8D8D",
"v. c #8E8E8E",
"b. c gray56",
"n. c #909090",
"m. c gray57",
"M. c #929292",
"N. c #939393",
"B. c gray58",
"V. c #959595",
"C. c gray59",
"Z. c #979797",
"A. c #989898",
"S. c gray60",
"D. c #9A9A9A",
"F. c #9B9B9B",
"G. c gray61",
"H. c #9D9D9D",
"J. c gray62",
"K. c #9F9F9F",
"L. c #A0A0A0",
"P. c gray63",
"I. c #A2A2A2",
"U. c gray64",
"Y. c #A4A4A4",
"T. c #A5A5A5",
"R. c gray65",
"E. c #A7A7A7",
"W. c gray66",
"Q. c #A9A9A9",
"!. c #AAAAAA",
"~. c gray67",
"^. c #ACACAC",
"/. c gray68",
"(. c #AEAEAE",
"). c #AFAFAF",
"_. c gray69",
"`. c #B1B1B1",
"'. c #B2B2B2",
"]. c gray70",
"[. c #B4B4B4",
"{. c gray71",
"}. c #B6B6B6",
"|. c #B7B7B7",
" X c gray72",
".X c #B9B9B9",
"XX c gray73",
"oX c #BBBBBB",
"OX c #BCBCBC",
"+X c gray74",
"@X c gray",
"#X c gray75",
"$X c #C0C0C0",
"%X c #C1C1C1",
"&X c gray76",
"*X c #C3C3C3",
"=X c gray77",
"-X c #C5C5C5",
";X c #C6C6C6",
":X c gray78",
">X c #C8C8C8",
",X c gray79",
"<X c #CACACA",
"1X c #CBCBCB",
"2X c gray80",
"3X c #CDCDCD",
"4X c #CECECE",
"5X c gray81",
"6X c #D0D0D0",
"7X c gray82",
"8X c #D2D2D2",
"9X c LightGray",
"0X c gray83",
"qX c #D5D5D5",
"wX c gray84",
"eX c #D7D7D7",
"rX c #D8D8D8",
"tX c gray85",
"yX c #DADADA",
"uX c gray86",
"iX c gainsboro",
"pX c #DDDDDD",
"aX c gray87",
"sX c #DFDFDF",
"dX c gray88",
"fX c #E1E1E1",
"gX c #E2E2E2",
"hX c gray89",
"jX c #E4E4E4",
"kX c gray90",
"lX c #E6E6E6",
"zX c #E7E7E7",
"xX c gray91",
"cX c #E9E9E9",
"vX c #EAEAEA",
"bX c gray92",
"nX c #ECECEC",
"mX c gray93",
"MX c #EEEEEE",
"NX c #EFEFEF",
"BX c gray94",
"VX c #F1F1F1",
"CX c gray95",
"ZX c #F3F3F3",
"AX c #F4F4F4",
"SX c gray96",
"DX c #F6F6F6",
"FX c gray97",
"GX c #F8F8F8",
"HX c #F9F9F9",
"JX c gray98",
"KX c #FBFBFB",
"LX c gray99",
"PX c #FDFDFD",
"IX c #FEFEFE",
"UX c white",
/* pixels */
"S V k V B c A x c B x v m M S n A S V n $. .: ; ; = = ; ; = = ; | X.f i y y p s y t e r t y y t p k i t i u j n o.R r c S x Z k ",
"d c x S A c Z B x N v B A Z G M C S A b ' ] 0 q 2 > : , > ; : < } ..s u i w 6 6 r r r t y u u y w e 6 6 9 8 w u ` H 9 j V l M s ",
"a x k m V z v n n M h k c v C n V C D m R E 4 + > = * - : : < 5 [ ..d d x l f h h j l x x x z z t q w i d p t y / V , 7 a a M z ",
"n c p s b x j z n M h j j f x g k h v n Q o.D u > = & * * * ; < _ { t 8 0 9 9 q 0 e y u u t e w g w y y q q q i  .Y p r r 9 p r ",
"E P J H L L J T N D Z H D m B v G S S V R %.@.` ) ! E R U K K I  .%.Z B m F Y H K I R E Y P K J v g C m j C I ' X...` ] ` W E L ",
"! ^ %.o.U F H E ) ] ^ ) ^ Q X.%.T / ~ J A H P L ~ Q Q ~ ~ W E Q C T m D Z ] *.E J I R R U L K K ^ ( 4.@.J H V V z M A H L P P K ",
"C V O.{ j r i f j z s s i s L ` x H J F S m v b x x m Z S C V C N F v V j ( @.g s j x c l j j l t z #.' V H n j m b c d s k g d ",
"Z z | ] d u s i 0 d j n z h J ^ C J M V U G B B B B A J H Z N M M M g z r ) =.r k v N B M n M B R Q 4.( k S N x b z x g l M k a ",
"S M { / w 0 k j s s j z d i V ` x B M h c b m N V M B x M F k e p a x l x ^ ] c H Z b l c B H I ' [ :.) z m S m B m C B A N f b ",
"n c ~ U e 5 9 6 u t r r w p A ` u y r y h l h f a k C v l c g x z p s g c W E p N m v c c c x z g T *.R p f d w i e a d h d 0 p ",
"` ' :.*._ ~ R E L U R E Q ) X.*. .[ ..=.O.} ' [ [ ` } ] ..+.X.<.*.+.&.#.} #.&.) W E E E R Y L H R o.2.O.[ [ R U ..! ~ ! ^ / Y / ",
"D F Y L I T H Y P R W T E ^ ! Y E T { *.F h h m M j s p x n N ' ) Q / ^ J F L G I K F D G L Y R _ Q T E [ / U &.+.G n z x m x M ",
"v c b l B Z z N B B v f h b n l N v U  .y = : 6 < 4 8 1 , = 6 Q H z d x M M c g j s y t a l M Z M v l j b a d o...v y r u g p i ",
"z k v x V A l v B C V M B S S V Z j H O.i 8 q 0 8 y a t a w t ) H m z b M c l x z k h j z n N V B F S v B v l / ^ a t d g x f u ",
"l d x z n A m N h c N V V N M n A h H +.0 8 r 9 r p t 0 k h d ) V S A B x a g C b b b n m n c l m m m x M m z Y F 7 w d y i t 0 ",
"g w i e w f g k c c c z g f z N V z Y +.* $ 2 < 1 u t 1 0 9 p ..t y w 0 r q w f h h g g f a y e g p z v g w k O.G 9 y f 8 7 9 9 ",
"[ ( T Z Z F n F F B K H S K D D c J +.] Z n M J S G L I R /  .%.S z c S D S U ^ R R R F L W J I P H Y R P R  .$.@.} ~ I H G G G ",
"Y E ( ~ O.) C D J H E T T ! ~ o.=.! W Q ^ ] ! R ! ~ ^ ~ Q ! ^ _ { ] ` ` _ ` O.1.1...` I J U G H G D / %.` ( ( Q Y I L J G F D S ",
"s g m b ] M , < , 2 8 5 q w y P ;.H m V F H B C N N B N M b c z v D S B A A Y @.| N l s r p y e g p D *.I J N k v b m m n n n n ",
"C b M g | n < 6 9 w w 0 a t y E o.Z B F V c j C C C C C Z V M b p n v b S N H %.[ j f z f z k a h t B *.V A N v c c z h d d g k ",
"V c c a | V 0 a u u r e j p w H :.H M A S C n S m b c z l h d a k z s h M j m o.` s a l d j g p z s F >.C A A A m b x h f d h k ",
"x j c k ' S e i 7 3 4 4 r 0 < s >.P b f a j j v k j g d p i u u j d e u g p v ` P t 0 e q u y i r w B | b l h d d a i i p p i u ",
"^ ~ ( ^ &.| J K U H U I U Y H T X.Q T B z V Z A I Y R T I P I Y U W ^ ~ Q ~ } *.[ L K K Y Q T ( ` ) $.7.O.} { ` [ ( W R Q ~ Q E ",
"R I L H R ^ H I / R ` ^ T ! R E Q E ` / ` *...Q B A F S B n n M I { ;.@.` ] } / ( Q / / [ { ! [ } / _ ` / / { [ $.] Y H K U U I ",
"p d l l n n x S N M M N C V n l C c S V v ' { 9 4 7 9 8 0 r w 7 h &.F l s h l k h k s p g d i d y 8 9 u 7 5 u 9 a / 5 9 0 u q j ",
"N N M v v v z N P F N n N A G J M b A v x ..O.w t t r r r e e r L -.Z k j j h d a k k d s u t u e 8 q s i y a r f | p 7 < w 0 a ",
"j b Z H K F C m b M Z H K F V m D D H l h } | 7 r 0 9 q 8 4 8 y  .*.c t s a t q w f k s t e r t r 0 0 t i i y y t | b 0 ; 8 5 9 ",
"n k t q 6 6 u t g s i i i i d j h g l a f )  .k 0 3 2 7 4 > 6 a  .+.V h m b d 0 8 e u e 7 q t q i 9 8 5 6 8 4 q 8 ! V g q t 8 w ",
"#...] +.[ ^ X.] Q ( ..&.#.{ / ~ ) P I Y U  .&./ U H G P J A K / $.1.@.} =.-.$.[ #.{ [ [ _ | +.{ ` W [ ( R W P Q ~ <.%.$.+...{ *.",
"l m Y 4.;.! ( G T G B n c n K ) *.T G P S V Z M K G G J G Z S P C C N k S Y X.>.) B c m c M A b H Z o.o.T U F J v C M A G Z F } ",
"c k B @.^ h V z x k l c x x Z R ..V j C A M N B M N V C V N M m g 5 6 < w r U 2.T i 0 s r r s t e 6 ( ` l j d s x z c n B b S ..",
"j s m =.) d C b z g f j k c K ] } n u c C M b c l b M N C Z N c n 8 g c M e A :.~ p r x d i k g p 9 ..o.k k z k h j m n m z V ' ",
"H f I *.~ n b l x n n b c j n E <.V z g A b v b F N z k b B M c m s u g p p I 5./ j k v w d N r r e ) O.V x n g n p z C j t l  .",
"C c ! $.I s i p 7 8 8 e a s z J 5.E K l j u g v a r 7 5 8 r u u 5 t a g A ` &.:.( d 9 e 8 p g < < 8 T Q p 8 y a u 5 w p p a x ) ",
"_ _ &.4.o.E T Q ] ) ! ( ..X.+.>.:.o.,.$.@. .] / ' ( ! Q ! ( ] | ] O.@.%.3.7.1.>.&._ ! ! E ~ ` / / ^ &.*.[ _ ~ / ( ^ ` Q _ { } ;.",
"] ( ) { | [ ] [ { ` Q ! ` _ ( { X._ | ] @.6.>.} ! E E ~ ( ( ( ) Q @.%.| { ) ~ ` ] }  .X.o. ...%.o.[ | [ ..O.) ` ] =.1.Q Q E K L ",
"A M v n V A Z V V Z B V F D S P I F F C J { L p e 0 r j n v h a f o.+.N v K K C b c g l S C x x c m V z c b j C x ' O.i 0 6 4 4 ",
"v z N A m b N b h b n m C V B F S J T U P } Z 8 t q u n F S n l z o.] j s x a r d a r y g g f z z k z s l n g z s } &.9 3 5 t d ",
"A z A U C B S v n S S D J D V A K G Z N B  .W M i e u x V m c c A +.] m v z s b g g j h s s z V c s f a z B f r y { *.3 4 7 u s ",
"^ x m L B V Z p k n m m Z N z l b k d l M } S e z f f c n x x M k =. .y 5 u u f c u r i p i t 6 s s m z s j a u y { *.2 7 3 4 , ",
"O.{ E ( / R Q ! / [ ' P G T ^ / ` / ~ ] #.$.) F n K S m c N F c ! +.%.( H H H Z S Z B v k h l c d h k c d y j s S ..$.H y i l l ",
"W ~ ` W Q ~ _ ` W ~ [ [ -.2.' ~ ` }  .| } ....} ..{ ..2.=.[ O.o.' @.$.} _ ' ' ^ ~ ) [ | | } } | @.%.:.+._ [ | ' } #.@.' Q ! ^ Q ",
"d n W w 9 t s p v f k a T X.Z K S K P S m m Z D b c Q >.W p z n a d d d h z l g y a h l l k h h c U &.I a h a s f t w i s i t u ",
"j F #.0 1 q u t r i b y T $.m H L P L H G G A M K G  .6.W h N x z g f l b n b v c x k h f f h j p H :.F 6 a 0 r h a s k j a a j ",
"q m @.r 8 u s u y j V r Y >.D K G G G J U R L A R V Y @.I j M g k d d k z l k x j f p u u p d g x L %.C q v g j u a d d s s d g ",
"q v ` j i t 0 3 u i p : m | B b N Z A N m N C C F C ' 0.` p f l s s d h k j j l a a a s d d a i w G -.R r e 9 t i a p i h m n h ",
"_  .&.{ ~ J D V N C J K [ #.I B m B N z f g k l p n ^ *.I 6 5 e > , < 1 5 7 5 1 q q e y u t 9 5 q H *...M t t u r e 0 0 u h g i ",
"' _ W ) ~ U Q ( O. . .X...} { o.$.$.+.o.+.$.O.} } +.| ..| ' ` U Y R T Y Q ( Q K ^ ^ ( ' } | [ ' ] | O.>.*.o.O.( [ ] ] ' ) / _ [ ",
"A c n N C V M F V C G F C K ^ ( I T E ~ ` Y X.^ G J K K U E T K U @.6.W V E U L H I Y I K K J G Z A v V I L K J [ >.A t t r b d ",
"v j x n M b j l l g l b v N J T J H H H L V Q H n m n n B D D C j ` <.E N F m M A J P K J K L K L F c x V C V N ] -.m 7 q 6 w , ",
"x z x m V B m b m k h z l g k n D V V M Z n U D l l k l m S H F n +.4.T c c g n z n N m M V C V A H P L H D Z A ` #.k < y t r 8 ",
"6 8 4 w u i h g w w w u h j l m h u f p k h A m l l j h z M N m x X.*.K l s u k p f g d f j j g l k N N n M z f / | p % 9 0 9 e ",
"F L F E W J W R G T H M M v j x m g n l M M F C m n x h h j d u M +.<.O.` ^ Q E Q ^ ~ Q W ! W Y H k z s d V x a `  .b 4 e 9 5 w ",
"U ^ W X._ M C N I ' _ ^ }  .$.w.&.` o.) ] ] { ` ( ( ~ W Q ~ W U I o.%.@. .#.2.*.) ` ` ) ( ( ~ T ! ! <.+.R ` ] ..;.2.#.' { ] ( ' ",
"m D C / F > 2 3 w a t y d t v O.Y b A g l z z k M M n b B F G D V A N m h S +._ w t y y u i e 6 = s -. .z z m U G G Y T R ~ Q R ",
"F P F { L > 7 r t r 8 u g 9 n 9.E b S g z m m M B M v z b C S Z B m b N g D -.' 0 r y i s d u 0 7 f &.{ c m b Z V l V Z b V N l ",
"I T H ' ! u e s u 0 t s q 5 Z ,.~ Z b M b c b b h x b c c b n v h A v v c n 1. .1 8 d v k y u j l d %.>.b a k g m Z N M z z C l ",
"D I P [ / s 6 5 u 9 9 e 8 q J <.G z x C M v n c f j j g g h g a e d w f p N @.O.& * < q w 7 8 r 0 8 ^  .b s s u s j g c z g c h ",
"..%.%.4.5.} ! E R K D A B A ) <.^ S B N x m A n S D D A D H D B A V v H G  .%.%.Z b c M C N m M b b ' @./ R U I L E K Y E G H H ",
"}  ._ ` .. . .O.} [ _ ^ W E ~ _ E H F C D o.:.~ W W W Q ( ] _ ! K ^ %.' Q } ( / | ) Q ^ ( ^ ! ! ~ W ` ..X.o.O.@.$.4.} R W I P P ",
"t w 2 = 2 0 0 y i a s s d d p t w y f t k o.X.w & * * = < 5 3 : @ b ;.z q 4 0 q i y u d j l x v b l s h n N Z S U @.V - > 4 5 4 ",
"r e t 9 y s 9 r p a s f j z z k h l x e f #...% 8 9 9 8 q r w 6 = A <.i a r j r q r i f k x b M N M k n B B D V Y 3.H + = 6 8 w ",
"2 1 q 7 e t , 8 t t y i i i a f i e t 5 p %.*.6 < 2 3 < , < > = > D { w s s x e y u p s f g h h z v k m c k C z G 4.K $ > 3 < 0 ",
"9 1 7 > 2 4 % 7 6 6 q y t q w u u 9 p p z $.@.3 * : > - * * & $ % Y O.x e 7 s f f s a a f j j f k x j m h d A z H 7.R 2 9 1 % 7 "
};
