/* XPM */
static char *_cf06b1838184be5d74a26338d293b8aFzfk64e6lLPizcAB[] = {
/* columns rows colors chars-per-pixel */
"64 64 256 2 ",
"   c #EA3A3B",
".  c #DA3A33",
"X  c #B9493C",
"o  c #D74B3C",
"O  c #EF5439",
"+  c #EA723D",
"@  c #D06E31",
"#  c #B53353",
"$  c #B93A68",
"%  c #84354A",
"&  c #D43255",
"*  c #E83859",
"=  c #F43A57",
"-  c #E9344D",
";  c #DA3867",
":  c #D93879",
">  c #CF326E",
",  c #E73A69",
"<  c #EC2D7B",
"1  c #E73879",
"2  c #EF3370",
"3  c #B74C5A",
"4  c #BB497A",
"5  c #B54F6D",
"6  c #B56575",
"7  c #8E6A74",
"8  c #C94A49",
"9  c #D84846",
"0  c #D55448",
"q  c #D85755",
"w  c #D04F54",
"e  c #E84848",
"r  c #F14849",
"t  c #E95749",
"y  c #E64857",
"u  c #E65657",
"i  c #F5514F",
"p  c #D9674B",
"a  c #D66656",
"s  c #D97958",
"d  c #CA6D50",
"f  c #E86B4A",
"g  c #F46749",
"h  c #EC734B",
"j  c #E87948",
"k  c #F1764C",
"l  c #E66A53",
"z  c #E97755",
"x  c #F27954",
"c  c #F46C50",
"v  c #D94569",
"b  c #CC4B7B",
"n  c #D84876",
"m  c #DA5777",
"M  c #C75270",
"N  c #E54769",
"B  c #E55567",
"V  c #E74477",
"C  c #F34E78",
"Z  c #D67274",
"A  c #EA6868",
"S  c #ED7773",
"D  c #E9803E",
"F  c #B4B877",
"G  c #B88163",
"H  c #D28D4D",
"J  c #EA8549",
"K  c #EC8658",
"L  c #F48353",
"P  c #F88456",
"I  c #F29151",
"U  c #FAA957",
"Y  c #FABC56",
"T  c #F0AE53",
"R  c #D88D6E",
"E  c #E68866",
"W  c #EE9372",
"Q  c #D3B574",
"!  c #EDB16E",
"~  c #DAA654",
"^  c #B8C979",
"/  c #B3D274",
"(  c #BFE077",
")  c #D3CF5B",
"_  c #F6D44E",
"`  c #F9CA59",
"'  c #ECD55C",
"]  c #EAD557",
"[  c #F4D453",
"{  c #FAD553",
"}  c #F3D35C",
"|  c #F8D856",
" . c #EFCB50",
".. c #D8D66A",
"X. c #CAD478",
"o. c #D9D774",
"O. c #CECA72",
"+. c #FACC69",
"@. c #E9D866",
"#. c #F6D867",
"$. c #E4D776",
"%. c #EFCC73",
"&. c #CFE475",
"*. c #F0E16A",
"=. c #DA3A83",
"-. c #E53986",
";. c #E93D92",
":. c #BE5C93",
">. c #B76E90",
",. c #D94887",
"<. c #CB5688",
"1. c #D65787",
"2. c #D94797",
"3. c #C95995",
"4. c #D65898",
"5. c #C74B89",
"6. c #E64784",
"7. c #E85796",
"8. c #F04B90",
"9. c #C76589",
"0. c #D66787",
"q. c #C76598",
"w. c #D77899",
"e. c #CD7193",
"r. c #E67796",
"t. c #EC6D92",
"y. c #CE55A4",
"u. c #E850A3",
"i. c #D27AA3",
"p. c #F174AA",
"a. c #FF7CC2",
"s. c #7CBCB6",
"d. c #7AB6A8",
"f. c #7AC4AB",
"g. c #78C6B8",
"h. c #6EC7B4",
"j. c #7BC89A",
"k. c #72C7CA",
"l. c #AB8B95",
"z. c #B0B78B",
"x. c #86BBB7",
"c. c #93B8B7",
"v. c #85B6AD",
"b. c #B2ABA9",
"n. c #9AAA9C",
"m. c #CC9090",
"M. c #FF9787",
"N. c #F38E91",
"B. c #D0B089",
"V. c #FDA696",
"C. c #F3AD8F",
"Z. c #D391AA",
"A. c #FB89A7",
"S. c #FA98B8",
"D. c #ED8FAF",
"F. c #CCA9B4",
"G. c #FCA9A3",
"H. c #F7B9A5",
"J. c #ECADB5",
"K. c #99CA99",
"L. c #95CC96",
"P. c #A7C988",
"I. c #B9D78A",
"U. c #B5CC98",
"Y. c #B6D498",
"T. c #ABCD8C",
"R. c #88C7AA",
"E. c #85C6B8",
"W. c #96C6B7",
"Q. c #91CFAF",
"!. c #AED2AC",
"~. c #BFE6A5",
"^. c #D0D68E",
"/. c #E7D985",
"(. c #F7D193",
"). c #C8E49A",
"_. c #CFE78F",
"`. c #F4E88A",
"'. c #C4D8A6",
"]. c #CAD7B2",
"[. c #F3CCAE",
"{. c #D0E8AF",
"}. c #F0EBB5",
"|. c #9AB7C3",
" X c #F79AC5",
".X c #FC8BC8",
"XX c #D9BBC8",
"oX c #D5B0C4",
"OX c #FDA6C9",
"+X c #FFB9D9",
"@X c #EFB0CB",
"#X c #FFB3E1",
"$X c #88C8C6",
"%X c #99C8C7",
"&X c #91D5D3",
"*X c #A6D7C3",
"=X c #B6D7CB",
"-X c #B7DAD8",
";X c #A8CECF",
":X c #ACE8D1",
">X c #B3D7E1",
",X c #B7E9E4",
"<X c #97E8CC",
"1X c #DAD5D6",
"2X c #CED3CF",
"3X c #FCC4CB",
"4X c #E6C8D5",
"5X c #F8C4DA",
"6X c #E9D8DB",
"7X c #FFD6D7",
"8X c #F4D4CA",
"9X c #D1EDC8",
"0X c #E9E7DA",
"qX c #F4EBD9",
"wX c #ECF6D7",
"eX c #FBF9D9",
"rX c #F5EEC9",
"tX c #FDCAE6",
"yX c #E9DAE2",
"uX c #FDDBE3",
"iX c #FDDDEC",
"pX c #FAD7E9",
"aX c #FFDDF4",
"sX c #CAEAE7",
"dX c #D5EBE6",
"fX c #DBF7F6",
"gX c #D6EEF2",
"hX c #ECECEC",
"jX c #E7E8E6",
"kX c #FEE5EB",
"lX c #F4EBED",
"zX c #FDEBEC",
"xX c #F7E4E6",
"cX c #EDFAED",
"vX c #EAF5EB",
"bX c #F3F4ED",
"nX c #FCF4ED",
"mX c #F4F9EA",
"MX c #EBECF9",
"NX c #FEE4F3",
"BX c #F4EDF2",
"VX c #FCECF3",
"CX c #FEEDFA",
"ZX c #FBE8FB",
"AX c #EDF5F3",
"SX c #EDFBF4",
"DX c #ECFBFB",
"FX c #E6F9F7",
"GX c #F6F6F5",
"HX c #FBF4F4",
"JX c #F3FAF4",
"KX c #FCF9F5",
"LX c #F5F6FA",
"PX c #FCF4FB",
"IX c #F3FBFB",
"UX c #FCFBFB",
/* pixels */
"GXGXGXGXGXGXUXGXGXGXGXLXGXKXLXGXGXbXIXcXJXJXGXHXPXPXLXIXDXLXPXPXGXUX0XKXKXxXnXKXGXnXHXPXPXPXLXDXLXGXGXGXLXGXGXGXKXGXLXGXGXLXGXGX",
"GXGXGXGXGXGXGXLXGXGXGXGXGXGXGXGXGXJXJXcXcXcXbXKXPXPXMXPXUXBXPXjXbXUXKXnXHXHXKXbXbXHXHXHXCXPXLXGXLXGXLXGXUXGXLXGXGXLXKXGXGXGXGXGX",
"GXGXLXGXGXGXGXGXLXGXGXGXGXGXGXGXJXJXHXHXnXnXJXIXUXZXCXZXPXUXlXhX1X2XzXjXGXGXbXnXHXHXGXGXGXGXHXHXLXGXLXLXGXGXGXGXGXGXLXGXGXGXGXLX",
"GXGXGXGXGXGXGXGXGXKXLXGXGXGXKXLXFXIXHXHXHXKXSXFXLXPXZXD.D.VXzXmX0X1XGXIXIXJXGXUXGXGXJXJXJXGXVXHXHXGXGXGXGXGXGXGXGXGXGXGXLXGXGXKX",
"GXGXGXGXGXLXGXLXGXLXGXGXGXGXGXIXfXIXbXzXnXHXIXvXhXCXD.5 5 F.mXnXzXkXlXGXvXDXUXGXGXLXSXAXGXnXHXnXHXGXLXGXGXGXGXGXGXLXGXGXGXGXGXLX",
"GXGXGXKXGXGXGXLXGXKXGXGXGXGXGXJXFXIXHXVXKXkXUXUXPX+XM > M M J.7XzXkXqXHXlXUXLXAXLXLXSXJXbXnXnXnXHXGXGXGXGXKXGXLXGXGXGXGXGXGXGXKX",
"GXGXGXGXLXGXKXGXGXLXLXGXGXGXGXGXKXCXHXHXPXXXuXtX+X1.> 2 C v # V.xX7X7XqXVXUXhXIXDXDXLXGXGXHXnXGXGXGXGXGXGXGXGXLXGXGXKXGXGXGXGXGX",
"UXLXLXGXGXGXGXGXGXGXGXGXGXLXGXLXPXNXPXHXkX>.Z.D.b ; ; C C y & A S Z N.6 D.kXkXUXIXIXLXGXGXGXJXJXKXGXGXGXGXGXGXGXGXGXHXLXGXGXGXLX",
"GXGXUXGXGXGXGXGXHXGXGXGXGXGXGXGXPXCXPXlXzX5X>.4 > < 2 - & - e - 8 8 8 w 3 C.GXzXHXlXPXUXUXLXDXDXLXGXLXGXGXGXGXGXGXGXGXGXGXGXLXLX",
"GXKXLXGXHXGXLXGXGXGXLXGXUXGXGXLXBXCXBXCXNXiXtXS.$ & 2 2 = - - e . 9 u w 8 r.+X7XHXHXUXVXhXAXDXFXLXGXGXGXGXGXLXGXGXGXGXGXGXGXKXGX",
"GXGXGXGXGXGXGXGXGXGXGXGXGXGXHXGXPXUX4X4XCXNX#Xr.> 1 2 = = - - r r   - 9 u S Z 6 3X8XuXUXUXUXIXIXLXGXGXGXGXLXLXKXUXGXGXKXGXGXGXGX",
"GXGXGXGXGXGXLXKXUXGXGXGXGXBXGXGXBXCXNX+Xe.<.w.> 6.p.8.* * = e r -   O e u A 9 8 Z D.7XHXVXhXGXUXKXGXGXGXKXHXGXGXGXGXLXLXLXGXGXGX",
"GXLXGXGXGXGXLXGXGXGXLXUXAXbXLXKXCXtXZ.$ $ : > > 1 7.8.= = = r       i e 9 t 9 B G.J.8XqXkXnXHXkXGXGXGXGXGXGXLXGXGXGXGXGXLXGXKXGX",
"GXGXGXGXGXGXGXGXGXbXUXUXlXLXUXVX4XJ.D.p.7.7.6.=.> > ; * * y y u i r - o e e 9 u S a Z J.7X7XxXKXGXGXGXLXGXGXGXGXGXKXLXGXGXGXGXGX",
"LXGXGXGXLXGXGXKXGXhXLXGXGXUXGX1X6XaX Xt.p.p.p.A.A.p.7.t.m 0 X X 9 e e i r e e t t 8 s V.G.m.[.nXHXGXGXKXLXGXGXGXGXGXGXGXGXGXGXGX",
"GXGXLXUXHXGXLXLXGXAXGXGXGXUXAXF.6XpXZ.4 V 6.7.8.t.t.A.A.A.V.V.M.A A q u t o t 9 9 q A S R Z.3X8XnXnXHXHXHXLXLXGXIXLXGXGXGXKXGXGX",
"GXGXHXPXHXCXHXHXGXLXAXGXHXBX4X1XKX7X>.$ n ; ; ; & & 9 w w a A S S N.N.M.N.W W W a A a S R N.m.[.8XxXqXmXUXVXLXIXIXAXKXKXJXbXbXKX",
"KXGXGXGXHXHXHXGXGXGXUXGXUXF.4XVXkX5Xr.> ; 2 2 2 = = y 9 0 w y y 9 9 0 a A N.M.V.V.V.M.G.G.V.C.H.[.[.8X8XnXUXBXIXIXAXbXnXcXcXnXKX",
"GXLXGXGXGXLXLXGXBXLXHXCXPXF.oXCXtXOXp.: 1 1 2 2 = r r e 0 9 e e i c p p p 0 p a q a A V.G.C.3X8X[.J.[.rXzXxXlXUXIXGXbXnXJXAXHXKX",
"GXGXIXGXGXGXGXGXUXBXPXPX2XXXiXZXOX7.=.=.-.6., N = = - r t t r r . o t f f s A z l d d s d Z C.H.H.H.B.rX}.F.6XhXGXGXbXmXJXJXUXPX",
"LXGXJXSXSXSXSXLXPXCXPXXXXXaXaXtXu.=.=.-.=.6.n 1 , = - r r r r O O O O O O j z z p 0 a E W [.H.[.N.R G [.[.R 8XnXnXmXnXmXcXSXLXLX",
"HXGXJXSXDXFXSXLXNXPXZX5XtXaXoX#X2.-.-.-.=.2.,.v N * = r r r O O O O O + + h h k P l z z E [.[.rXH.R R H.C.B.[.rXeXnXnXnXcXJXLXZX",
"HXHXJXDXFXFXIXLXZXpXtXZX XtXtXZ.=.;.;.-.=.,.6.n N * * 9 e e r O O O O g g h c k h z S K K C.W H.W p W C.C.(.rXrXrXxXnXHXLXDXLXLX",
"CXHXGXDXDXDXLXKXpXtXZ.q. X@XtX X=.-.=.8.2.=.,.: ; ; y * e O t t g g g g g f h k h z x x W E H E l p W V.W C.}.(.}.qXHXLXMXDXLXPX",
"HXVXGXLXIXDXLXPX+XoXOXq.q..X Xp.=.=.=.=.: -.-.1 1 ; * y e r t t g g c c h k h h k x x P L K J j k + W V.R ! (./.{.eXHXCXIXAXMXLX",
"HXHXGXbXAXAXBXNXZ.>.i.D.p.4 .Xi.> =.-.: < -.< < 1 , , N y y t l l g l l l h f h k x L P L x x j k j V.V.d H +./.[.eXCXBXIXDXhXGX",
"zXHXKXGXAXUXZXZX@Xi.3.:.D.p..X4.: 1 -.1 < < < < < 2 , , y r o t l l l l l z h x k k L L P L k j + + M.V.s ~ %.`.}.eXxXjXcXJXbXHX",
"nXHXKXGXLXAXiXtXoX#XD.$ 3.u..X2.=.-.-.: < < -.< < 1 2 * r r f f l p f j f j h h j j L L L L J j D + V.N.H ~ $.`.}.eX0X0XmXcXmXnX",
"KXGXGXKXBXyX1XXXtXZ.#X.X:.y.a.=.-.-.=.,.=.: -.-.1 1 , * i i f p j j j + j j j j J K J L L x J j j J C.W H ~ $.`.eXeX0XqXwXeXmXnX",
"JXvXbXKXPXBXpXaXaX@Xq.@Xy.2.a.> ;.-.2.3.5.5.5.,.n : , N y i j @ J D D + j J J J J K K K K K K z j E (.Q ~ +.$.^.eXmXqXwX}.9XeXnX",
"SXcXAXGXKXPXZXZX#XoXq.y.5.u.p.;.;.;.y.q.q.:.y.y.4.b ; y o g I J J D D D + D D J I I I K I K K K K E (.C.+.`./.).mXjXqXrX_.{.0XHX",
"SXSXJXGXxXpXyX4XF.>.i.i.<.p.u.: -.-.3.3.>.:.:.:.4.b N y o x +.+.Y U T I U U U U I U U ! ~ R ! R R W (.%.+.`.(.}.wX0XrX}.{.'.0XHX",
"SXFXIXUXBX6X1XpXF.Z.i.r.:.A.6.N N m 1.9.q.:.y.y.y.1.; y 0 + ! @.#.+.} #.`  .Y  .` +.+.%.O.B.^.(.Q `.`.%.*./.}.eX{.mX].U.U.U.0XcX",
"JXUXGXhXBXUXUXNXtXD.9.0.D.OXb V N B m q.q.q.y.y.4.1.v w o s %...@.[ ] | {  . ._ _ } @.$.X.^.'.).^.`.$.O.^.X.^.].'.].U.!.9XwXwXvX",
"UXhXhXIXUXCXhXZXtXD.1.b r.OXb m n m q.q.:.y.3.3.3.1.B y 0 K (.%.#.] [ | { _  ._ | #.*.$.^.^.I.I.I.).).T.I.U.Y.T.'.U.U.{.wXmXcXbX",
"VXHXhX1X1XyXMXCX+X3.1.,.w.S.1.b b 1.:.q.q.>.9.<.1.B v y 0 E (.%.' _ [ | { _ _ _ } #.#...O.X.P.P.T.{.Y.Y.!.Y.T.T.).U.{.wXvXbXBXHX",
"VXUXGXjX6XiXMXCXtX3.,.7..X X1.,.4.4.y.q.q.9.0.1.m v u q q R B./.' _ _ | { _ { { | | #.$...X.X.I.Y.~.!.!.K.Y./ P.).).wXKXHXCXBXPX",
"HXzXAXLXZX5XXXXXoXe.b b  XS.b 7.2.2.y.3.4.1.1.m m w y q q R B.$.' _ _ [ [  . .{ | | *.*.o.&._._.{.~.P.T.P.I./ / ).{.wXUXPXPXPXPX",
"hXUXFX2XXX5X@XF.l.Z.0.5.S.Z.1.7.2.y.2.;.2.,.m n B v u q 3 Q B.^.' | [ [ [ _ { ` _ { | ] @...&.X.'.^.z.^ / ( &./ ).mXAXMXLXZXUXHX",
"cXJXDXvXaXZXZXZXaX XZ.D.OXw.4.7.u.2.;.;.=.V n n B w B w d ! ^.o.] | { [ { { { _ { { | ] *.*...X.}.{.^.^.( / ( / T.cXLXLXUXGXKXlX",
"JXvXFXSXkX5XpXCXaXoXe.3.OXD.1.7.;.u.8.-.-.-.C 1 V N B w d R /.o.] ] | | | } { { { _ { { ] ] *...}.B.^ &.( &.I.Y.n.2XMXIXLXhXJXmX",
"IXSXFXcXCXiXpXaXNXaX>.Z.D.9.p.1.;.u.1 < ;.-.2 8.C 2 N q d ~ %...' | ] | [ ]  ._ { _ _ _ ] *.*...}.'.T.I.I.I.L.c.c.;XMXDXIXAXJXcX",
"HXUXFXfXUXPXlXiXF.XX+Xw.Z.e.5.0.2.5.-.6.8.6.1 1 V C C y a W +.T } } | ' }  . .[ _ | | *.*.@.$.X.9X!.L.L.Q.j.g.$X|.|.sXFXJXmXJXmX",
"lXUXSXvXUXPXBXCXKXF.>.D.r.0.M 4 4 # 6.1 2 1 V 1 1 2 C B p J U Y ` } } }  .] ] ] | ] | *.o.o.X.I.9XE.j.Q.g.k.k.k.$X|.gXFXJXmXcXJX",
"VXHXGXFXIXGXxXxXkXuXJ.Z.r.# A.OXr.r.V 2 , V 1 V 1 2 V B p j U ` Y  .` } } ] ] ] *...) X./ ^ P.Y.*XQ.h.h.k.k.k.k.$Xc.fXIXcXmXbXUX",
"KXGXLXAXDXLXBXpXLXF.NXZ.t.# S.5XS.tX& * , , ; V 1 , * q p j U U T ` ` ` } ' ] ) ) ..X.X.P.P.K.!.*Xf.g.h.k.k.k.k.k.%XFXDXKXbXGXUX",
"GXLXLXhXjXBXCXiXHXHXxXZ.M ; m t.t.S.& & - ; & ; ; ; N q s I U T Y ` ` ` ' ' ) ) ) / X.).Y.K.E.<XQ.v.f.g.h.k.h.E.x.-XDXMXUXPXKXnX",
"AXGXUXyXoX4XCXkXxXbX6X3XM m v # M & , * & * ; v v m t.S Z ! ! T Y ` ` ` ` @.@.O./ / P.L.Q.j.E.:XQ.f.f.g.h.g.g.R.c.fXIXMXUXLXHXmX",
"DXIXKXHXpXl.kXHXuXHXqXpXw.N.9.0.w # v & - & & b M >.l.m.B.C.W T T Y Y `  .T O./ P.K.R.R.Q.f.E.<XE.h.h.h.g.$Xx.v.fXfXDXLXLXUXGXGX",
"DXjXhXxXuXF.l.CXkXuXkXCXJ.e.D.OXr.t.B C - , ; 5 >.>.b.b.z.B.B.! ~ Y Y ` ! O.^ P.L.R.E.g.g.g.Q.:Xh.h.h.&Xg.d.%XgXfXDXAXIXUXGXLXLX",
"IXJXUXzXHXuX7 6XKXxXzXzXuX>.Z @XS.r.N.N.S.N.D.J.oX;Xv.v.R.L.L.F Q Q ! ~ Q ^ F L.j.h.g.g.s.R.!.<Xg.g.g.s.g.%XsXDXFXDXLXUXHXLXHXGX",
"FXJXHXCXzXUXF.l.HXKXxXuXzXZ.% m.D.m 3 3 M N.J.XX2X,X,X:X<XQ.Q.L.P.Q z.Q F F L.j.j.h.g.g.x.c.*X*XE.E.d.x.>XfXDXFXDXLXGXGXKXHXHXHX",
"DXvXlXUXVXHXuXF.0XUXxXkXHXuX>.6 D.S.N.r.Z G.Z.7 n.|.%X$X$X&X<X*X9X9X].].].!.R.f.g.k.k.g.v.W.*X*Xv.v.%XsXDXDXDXIXLXLXPXHXPXHXVXPX",
"SXFXUXlXHXHXkXkX1XKXlXzXkXuX7X>.w.Z S.M e.xXJ.F.ZXgX>X$Xs.s.g.s.E.W.W.=X=X-X:X,X<X&X&X&X%X;XW.W.c.=XgXDXDXDXSXLXGXPXGXPXHXHXHXGX",
"vXIXUXjXVXHXlXUX1XhXKXjXxXuXHXJ.D.+Xm.3XJ.xXnXnXMXLXFXgX>X%X$Xx.g.s.v.c.c.c.x.x.&X&X>X;X-X:X:X!.jXFXJXvXAXLXUXBXGXHXVXLXHXGXHXGX",
"IXSXFXUXPXkXHXGX1X6XUX1XVXPXuXPXF.J.3XzXxXKXnXKXCXPXLXIXDXfX>X$X$Xx.x.c.c.c.x.$Xs.$Xx.c.=XsXfXcXIXGXvXKXGXKXGXKXLXHXHXGXGXPXGXGX",
"GXDXGXGXCXHXGXLXKXHXSXAX0X1X6XHXNXBXBXbXcXvXcXcXGXUXPXDXIXDXsX;X%X>X-X-X-Xc.x.$X$XE.%XsXgXjXjXcXmXGXmXGXGXnXbXHXHXGXGXGXGXGXJXGX",
"DXIXJXGXHXHXGXGXGXGXAXJXlX6XxXHXCXPXLXAXcXcXcXJXGXGXPXVXIXIXFXgXdXjXFXDXFX-X%X$Xg.*XsXFXGXjXhXmXGXGXKXGXbXHXKXHXGXGXGXGXJXLXAXIX",
"AXIXLXGXGXLXHXHXbXAXbXKXGXGXlXlXPXPXUXIXSXSXJXJXmXHXnXnXHXGXIXSXFXAXJXUXJXsX*XW.=XsXFXAXhXlXcXKXbXKXmXHXKXGXGXGXGXGXmXGXGXDXJXLX",
"DXGXPXLXGXLXPXHXAXFXGXHXJXLXHXzXCXCXPXGXSXJXJXJXKXnXnXHXKXbXcXSXvXGXbXGXGXjXsX2XFXSXbXlXhXHXJXJXbXGXGXnXGXGXKXHXGXGXGXJXGXGXGXJX",
"LXLXGXLXLXGXPXHXGXSXHXGXGXGXKXHXHXPXLXGXDXFXDXGXGXmXbXKXGXSXSXSXcXJXbXBXHXGXhXFXIXKXnXHXKXUXFXvXJXGXGXGXGXGXGXLXGXGXbXGXGXGXGXGX",
"LXGXLXLXGXGXPXHXGXJXGXbXbXJXGXGXGXKXHXLXGXLXLXLXKXGXvXbXJXSXJXSXcXGXGXHXPXBXhXLXGXbXnXHXKXcXvXDXJXGXGXGXGXGXGXGXGXGXHXGXGXGXHXHX",
"LXLXGXLXPXHXGXGXGXGXGXGXGXbXGXHXHXnXHXLXUXLXLXLXUXUXKXGXBXLXLXBXGXUXUXPXPXLXFXDXDXFXHXnXzXVXKXUXLXGXLXGXLXLXGXGXHXHXHXGXHXHXHXHX",
"PXUXGXGXPXLXGXGXHXCXGXIXKXHXbXGXGXbXHXUXLXZXPXPXBXPXPXKXPXPXUXPXHXUXPXZXLXFXFXDXFXSXnXHXHXHXHXGXLXLXLXLXGXLXGXGXKXGXHXHXHXHXHXnX"
};
