/* XPM */
static char *result[] = {
/* columns rows colors chars-per-pixel */
"64 64 20 1 ",
"  c #785E3E",
". c #A38869",
"X c #826C4D",
"o c #957959",
"O c #63482C",
"+ c #6A4F34",
"@ c #584027",
"# c #52371F",
"$ c #4B3019",
"% c #361C0E",
"& c #31160A",
"* c #3A200F",
"= c #462A18",
"- c #402615",
"; c #705639",
": c #200D09",
"> c #262718",
", c #29120D",
"< c #180806",
"1 c #B29775",
/* pixels */
" .XXooXoX OO++O+OOO@OO@@OO##$%&&*=$OOO@#O@O-@+OOO++O;+=X..oo.XX@",
"XXO@+@++@$ O O@+++;++;;+@O+;@$=:=@+ ;+O;;+;;@+OO+;;;X;>oX@;O@@@+",
";XO@OO@+#*++OO@O;+;OO;;;O+++$@#&-@@+;;++;+;;+OX ;;X;  -;o@@OO@#@",
"$#*$$$-*&*++++OO++;+O+ +O;; O@#:#@O+  X+@@+ ; X ; ++ ;-#%---$*-$",
"**&**%**%#@O++++;;;++; O;;; @@-,=O;@+X @+ ;X;  X+; ;X;+O-%----*-",
"--***-*--#@ +++++ +++; ;;;; @O=&#O@@++ +;X X;+;;XXX   O#O-##$*-%",
"%#@##$#$$@O++++ ;;+;; ;;;;;;; #,$#+X+++;;  X;@$ X;;   +#@+X;@$$-",
"@ X O@###@+++OO+  ;;O  ;;; ; #O&-#; OX+XX   XX+;X ;   ;@@oXO@$$*",
"@@+@#$---@++OOO; ;;; ;;; ;; O O%#@; XO;;++@+;  X;X ; ;;O#++@#**-",
"@@#--*%&%@+OO++; ;;; ;;;  ;;O#O*@@;  +X@@;;X;XO++;   ; O$@@#$%%*",
"@XX;O@###+OOOO+;;       ; ;;@ O%O@;X+  oX @+X+++X;  ; ;O+X ;@$-$",
"@@@#--***++OOO+     ;;     @O @%OO@OXXXXX XX +; +X   ;;+$@#$-%%%",
"#X ;O@$##+++OOO    ;;;      O @,#O  ++X  ;  X X +    ; +;X ;O###",
"@XX;O@###++++@O ;   ;;     ;OO@%$   ++   +;++;;X +     ++X ;O$$$",
"@XX;O@###++++OO   ;      ;  @#O*@ ;;;+ ; X X;X+X ;X  X ++X ;@$$$",
"@XX;O@$##+@@@@O+    ;     ;; O#&O ;;;; +; X=XX+X o  X  ++X ;O#$$",
"@XX;O###$@@@@OO;  +     ;; ;  $&O + ;;   XX+;X ;X  X   ++X ;O$$$",
"@XX;O####@@@@+O   ;         + #&$ ;;;     X+; +  o X   ++XX;O$$#",
"@XX;@#$#$@@@#+O   ;+     ;    #,=  ;;;   X+XX;+X;;  X X +XX O$$#",
"$XXO@#-$$@@@@+O++OO++;+;+O+++#-<-++O++;+;@+; ;++ ;;;+;;++X ;@$-$",
"=O@##$###%%#$$-$$##@@@@@@+@@#-,:%$O@O@@@@@@O@@=@@@@@-**$@OO@#$$$",
" .XXooXoX+@O+;$ X  XXXXXXX;#@-=%-$@@; -oXXXoXXoXXXX +@@X..oo.XX@",
"XXO@+@++@$O;;+@oXo ooXoooo.X+O@*@;+X1XX.X1XXoooooooXXXOoX@;O@@@+",
";XO@OO@+#*++;++XoX        +;;O#,=O;  ;+;X+ ;+;;    ++OO;o@@OO@#@",
"$#*$$$-*&-;;+O+XXX;+;+@;O+;++;#*$O ;;;+XO; ;;   ;  +O@*#%---$*-$",
"**&**%**%@@@@O+XXX++++;+;;;;+ @*#O   +;+ X @;;; +  +++@$-%----*-",
"--*---*--@@@@@#oXX;;;+O+;  ;  @*#O ; ;;+ $XX+   ;    ;O#--##$*-%",
"%#@##$$$$@@@@@#XX+; O+; +;;;;;@*#@+  X;;; ;;+;;; ;    +@@++;#$$-",
":+X@@#$$-OOOO$# X +++;;;;;;   O&##    + ; X ++;;+     ;O@oXO@#$*",
"%+XO+@$$#@OOO@@ o +;+;;;+O; OO#*##;    X;+  O$; ;;    OO+o O@#$*",
"%+X;O@##$@@@O@#XX ;;; ;;; +OOOO*$#    ;@;X@;+@+;+;    OO;X O@###",
"* X;+@#$#OO@@@#XX ; ; +;  ;  OO%#O   XO ;+; X;+XO;   ;OO oX;O###",
"*XX$+#$##O@@O@#XX ;   ;O;   ;OO%#O     ; +X;++@;      ++ oX;@###",
"*XX @@#@#@@@@@# o ; ;;O;;   OO@%#@     O@+++;+@+     ; + oX;O###",
"*XXO@####@@@@@@XX     ;++ ;;@ @%#@    ;; ;+;X++ ;;     ++oX;@#$#",
"- X;+@#$#@@@O@@ X  ;; ;OOO;;;+@%$@O + X@;;X;;+;;      ;O oX;@###",
"*XX$+#$##@@@O@@ X ;; ;O;;+#;; @%-;O ;   +@;+@;;     ; ++;oX O#$#",
"*XX @@#@#@@@O@@ X ;; ;;;O;; ; O,= O   ;  ; XX+;        O;oX O##$",
"*XXO@####@@@O@@ X;;+    @; +OO$,=;O +    $  ;  +      ++;oX +###",
"-o.;O$###@@@@@@;X;+;     ;@O@@$:#$@;; ;  ;+;;  ;;;   +O+ oX +###",
"-#X;+##$#@@@@@@Xo;  ;+    ++@@@,O#O     +;O@@ XX  ;  +++ XX +###",
"$ X +@###@@@@@O X;       ;;@@@#:@=@O ;    O X      ;  +++oX +###",
"*XX @@###@@@@@@ o;+     ;;;;;@$:-#;@ ;+  ; ;+ o ;     ++ o  X###",
"-XoX+@###@@@@@O X    + +;;; ;O#,#O;     +     ;;       +;oX +#@#",
"-XX  @###@OO@@@ X;     ;   +;O$:#O;           X   ;   ;+;XX  @##",
"*XXXO+###@@O@@+XX;;+   ;;+;;;O#&$O  ;     ;         ;  + oX +###",
"*XX; +#$#@@O@@#; ;;;   ;;;;;;O#*$O+  +          ;      + oX +###",
"-XO@@@###@OOO@@O++O+++@++++++@=,$+O+;+;++++++++;+;;O;;;O oX +###",
"-ooo+@##$$=-**O+#$#@@@@@@@@@@$-:$===$@@@@@@@@@@@@@@@@@@$ oXX+@##",
",OXO +###; ;;;oXXoXoXXXXXoXo;O#%-#O+$oXoXXoXoXoXoXoXoXo+ oX +###",
"*XX O@###XXXooo1oXoXooooXoXXo+O-=#;@#.oo....oo..oooooo;; oX +@##",
",oo +@###O;O@O ;;   ;  ;; ;  ;@%#;;O#o         ;  ;   ;+ oX  ###",
"-o; +####OO@OO;;  ;;;;+   ;;;+O--; @@o      ;  ;;;;   ++ oX +@@#",
"$O  +@###@OO@O;     +;;    ;;;@=#  @$o      +;;;  ; ; ++ oX +#@#",
"*Xo;O@#$#OO@@O;  ;    ;+ O;;; @-@@ @OX          ;     ;+ oX +@@#",
"%Xo O@###OO@@O   ;    ;;   ;O+@%@@;+@o    +    +   +  +# oX +#@#",
"$X  O@###OO@@O+;  +; ++;  ;;;;O&OO @+X   +   ;  ;     +# .X +###",
"-@#;O@###OO@@@+;;  ;;;   +;;;@@*@@ @@o ;     ; ;;+    +# oX +###",
"*XX +@$##@@@@O+;+   ;  ;;;;O@;#%-O ++X       ;;;;;;+ ;++ oX +###",
"-.X;+@###@@@@@+;  ;     ;;@@;;#-=@ @@o  ;  ; ;;;;;     + oX +@@#",
"-oo +####@@@@O+   ;;+ ;;;;   $#==@ @+X ;   ;;;;;; ;; + + oX +#@#",
"-Xo@O@###O@@@O+     ; ;;;; ;O@@==@ @@o    +; ;;;;;;+ ;;+ oX +@@#",
"-X XO@###OO@@@+   ;;;   ;+;;  $=$@;+@X          ;;;;  ;+ oX +#@#",
"$O ;O@#-#OO@@O+     +;;;;;;;; $=$-;@@o  ;      +;;;;   + .X +###"
};
